<svg width="61" height="43" viewBox="0 0 61 43" fill="none" xmlns="http://www.w3.org/2000/svg">
<path d="M15.7899 5.83887C15.7899 5.83887 12.2299 9.56887 11.8299 16.4689C11.4299 23.3689 19.4799 13.3989 19.4799 13.3989L15.7899 5.83887Z" fill="url(#paint0_linear_799_738)"/>
<path d="M13.48 13.3986C13.48 13.3986 15.09 4.89854 17.75 3.09854C20.41 1.29854 25.19 2.92854 25.19 2.92854L13.48 13.3986Z" fill="url(#paint1_linear_799_738)"/>
<path d="M54.4998 33.2791C48.4698 42.6891 18.5898 44.1891 13.4598 39.4891C11.4198 37.6191 10.1098 35.1491 9.45979 32.3591V32.3491C6.69979 20.4291 16.0298 2.7191 31.5198 0.979104C42.0098 -0.190896 50.7798 8.41911 54.4398 17.6091C56.7298 23.3591 57.0298 29.3291 54.4998 33.2791Z" fill="url(#paint2_linear_799_738)"/>
<path d="M48.6501 37.7984C44.9701 39.3984 39.4101 40.9184 35.6801 41.4184C28.7401 42.3384 23.6401 42.2284 20.7001 41.4884C18.7601 40.9984 17.7601 40.2484 17.7701 39.3384C17.7701 38.7884 19.0701 38.1284 21.1601 37.4484C27.3101 35.4784 40.2901 33.4084 47.4601 33.5284C48.0801 33.5384 48.6501 33.5684 49.1701 33.6084C49.2801 33.6184 49.3901 33.6284 49.5001 33.6384C49.5201 33.6384 49.5401 33.6384 49.5601 33.6384C50.8101 33.7684 51.7201 34.0184 52.1601 34.4084C52.2701 34.5084 52.3501 34.6084 52.4101 34.7184C52.7701 35.5984 51.1401 36.7184 48.6501 37.7984Z" fill="url(#paint3_linear_799_738)"/>
<path opacity="0.3" d="M54.5 33.2785C48.47 42.6885 18.59 44.1885 13.46 39.4885C11.42 37.6185 10.11 35.1485 9.45996 32.3585V32.3485C9.45996 32.3485 11.95 35.9185 18.05 35.8485C24.14 35.7785 41.52 32.5785 44.72 29.5085C47.92 26.4285 44.95 14.6885 44.95 14.6885L54.44 17.6285C56.73 23.3585 57.03 29.3285 54.5 33.2785Z" fill="url(#paint4_linear_799_738)"/>
<path opacity="0.5" d="M48.6501 37.7987C45.4901 36.9087 36.3001 34.7187 29.5201 37.2087C21.2001 40.2587 20.7001 41.4786 20.7001 41.4786C18.7601 40.9886 17.7601 40.2386 17.7701 39.3286C17.7701 38.7786 19.0701 38.1186 21.1601 37.4386C27.3101 35.4686 40.2901 33.3987 47.4601 33.5187C48.2101 33.5487 48.8901 33.5886 49.5001 33.6386C49.5201 33.6386 49.5401 33.6386 49.5601 33.6386C50.8101 33.7686 51.7201 34.0186 52.1601 34.4086C52.2701 34.5086 52.3501 34.6086 52.4101 34.7186C52.7701 35.5986 51.1401 36.7187 48.6501 37.7987Z" fill="url(#paint5_linear_799_738)"/>
<path d="M49.1599 33.6086C47.7299 35.3786 40.0499 37.7686 35.5699 38.3686C27.5299 39.4286 22.4899 38.8186 21.1499 37.4486C27.8199 35.3086 42.5699 33.0386 49.1599 33.6086Z" fill="url(#paint6_linear_799_738)"/>
<path d="M9.47021 32.9085C11.2102 36.3785 36.8702 34.3185 42.5302 27.1085C48.1902 19.8985 39.2202 -0.471529 26.0002 3.23847C13.4002 6.77847 6.31021 26.6285 9.47021 32.9085Z" fill="#DFE2F3"/>
<path d="M9.47021 32.3489C11.2102 35.8189 36.8702 33.7589 42.5302 26.5489C48.1902 19.3389 39.2202 -1.0311 26.0002 2.6789C13.4002 6.2189 6.31021 26.0589 9.47021 32.3489Z" fill="url(#paint7_linear_799_738)"/>
<path d="M43.8098 4.47881C43.8098 4.47881 42.4198 17.0288 50.2198 21.4688C50.2198 21.4688 54.0498 21.8788 56.2798 19.5688C56.2798 19.5688 52.8098 22.7988 49.1598 19.4388C45.4998 16.0688 46.3798 6.7888 49.1598 3.7688C51.9398 0.748804 55.9398 1.53881 55.9398 1.53881L54.3398 0.108816C54.3398 0.108816 48.4298 -1.09119 43.8098 4.47881Z" fill="url(#paint8_linear_799_738)"/>
<path d="M54.3399 0.109173C54.3399 0.109173 49.9999 -0.290836 46.9699 4.70916C43.7499 10.0192 46.0899 19.1992 49.9999 20.5892C53.9099 21.9792 57.8698 7.12916 57.8698 7.12916L55.5999 1.21917C55.5899 1.22917 55.1399 0.399173 54.3399 0.109173Z" fill="url(#paint9_linear_799_738)"/>
<path d="M59.9498 12.7583C59.3898 15.6283 58.2198 17.9683 56.6398 19.4483L56.6298 19.4584L56.1898 19.8483C54.9198 20.8683 53.4098 21.3584 51.7798 21.1484C46.4998 20.4784 45.7898 12.8884 46.4098 8.57835C47.1298 3.60835 51.4198 0.618348 54.8298 1.05835C58.8798 1.57835 61.0398 7.14834 59.9498 12.7583Z" fill="url(#paint10_linear_799_738)"/>
<path d="M8.67014 29.0186C8.67014 29.0186 5.20013 30.5285 2.32013 33.9785C-0.569869 37.4285 -0.809891 41.0085 3.36011 39.8885L5.10013 38.3685C5.10013 38.3685 2.64013 39.1985 2.48013 36.5885C2.32013 33.9685 8.67014 29.4985 8.67014 29.4985V29.0186Z" fill="url(#paint11_linear_799_738)"/>
<path d="M2.21014 37.939C1.19014 39.459 3.89014 40.149 6.03014 40.089C8.43014 40.019 12.5801 38.969 12.0001 36.639C11.4201 34.309 4.61014 34.369 2.21014 37.939Z" fill="url(#paint12_linear_799_738)"/>
<path opacity="0.64" d="M2.41019 38.1689C2.39019 38.5689 10.8602 37.5089 10.8502 35.9989C10.8402 34.4889 2.55019 35.0989 2.41019 38.1689Z" fill="white"/>
<path opacity="0.64" d="M12.5 24.1487C13.11 26.1087 17.18 25.5787 18.26 22.5087C19.34 19.4387 18.18 15.5387 16.1 15.3787C14.02 15.2187 11.31 20.2687 12.5 24.1487Z" fill="white"/>
<path opacity="0.64" d="M29.0099 17.5692C28.8799 17.8492 31.9199 14.9592 37.8799 16.0292C38.4699 16.1392 31.6299 12.0492 29.0099 17.5692Z" fill="white"/>
<path opacity="0.64" d="M23.0298 28.2986C23.0298 28.2986 28.7498 26.8086 31.2598 22.3086C31.2598 22.3086 30.2898 28.4086 23.0298 28.2986Z" fill="white"/>
<path opacity="0.5" d="M9.47 31.3393C9.47 31.3393 7.87 26.7593 10.85 19.2793C10.85 19.2793 11.57 18.0593 12.06 18.3493C12.55 18.6493 9.21 24.2993 9.47 31.3393Z" fill="url(#paint13_linear_799_738)"/>
<path opacity="0.72" d="M47.2598 14.6387C47.2598 14.6387 47.8197 19.2987 51.2697 20.3087C54.7197 21.3187 57.5197 18.8387 58.3997 15.3487C58.3997 15.3487 57.3197 18.3687 52.8297 17.5887C48.3497 16.8187 47.2598 14.6387 47.2598 14.6387Z" fill="url(#paint14_linear_799_738)"/>
<path opacity="0.72" d="M47.9001 5.83879C47.9401 6.70879 54.2701 4.90881 56.2801 5.16881C58.2901 5.43881 59.1501 7.88881 59.4701 7.82881C59.7901 7.76881 58.9401 2.03881 55.2001 1.61881C51.4501 1.18881 47.8701 5.23879 47.9001 5.83879Z" fill="url(#paint15_linear_799_738)"/>
<defs>
<linearGradient id="paint0_linear_799_738" x1="15.647" y1="18.9011" x2="15.647" y2="5.84107" gradientUnits="userSpaceOnUse">
<stop stop-color="#008056"/>
<stop offset="1" stop-color="#A4CC7B"/>
</linearGradient>
<linearGradient id="paint1_linear_799_738" x1="19.3383" y1="13.4033" x2="19.3383" y2="2.25404" gradientUnits="userSpaceOnUse">
<stop stop-color="#C9D400"/>
<stop offset="0.1845" stop-color="#CDD400"/>
<stop offset="0.3698" stop-color="#EED100"/>
<stop offset="0.5" stop-color="#FFCD0F"/>
<stop offset="1" stop-color="#F6A230"/>
</linearGradient>
<linearGradient id="paint2_linear_799_738" x1="30.6184" y1="43.0141" x2="35.8895" y2="1.04541" gradientUnits="userSpaceOnUse">
<stop stop-color="#C9D400"/>
<stop offset="0.1845" stop-color="#CDD400"/>
<stop offset="0.3698" stop-color="#EED100"/>
<stop offset="0.5" stop-color="#FFCD0F"/>
<stop offset="1" stop-color="#F6A230"/>
</linearGradient>
<linearGradient id="paint3_linear_799_738" x1="17.7525" y1="37.7948" x2="52.4453" y2="37.7948" gradientUnits="userSpaceOnUse">
<stop stop-color="#008056"/>
<stop offset="1" stop-color="#A4CC7B"/>
</linearGradient>
<linearGradient id="paint4_linear_799_738" x1="32.8734" y1="42.0711" x2="32.8734" y2="14.6772" gradientUnits="userSpaceOnUse">
<stop stop-color="#926AAB"/>
<stop offset="1" stop-color="#CDEAFC"/>
</linearGradient>
<linearGradient id="paint5_linear_799_738" x1="35.0989" y1="41.485" x2="35.0989" y2="33.5183" gradientUnits="userSpaceOnUse">
<stop stop-color="#8FA3D4"/>
<stop offset="1" stop-color="#6E5CA4"/>
</linearGradient>
<linearGradient id="paint6_linear_799_738" x1="35.1788" y1="38.8418" x2="35.1363" y2="33.6124" gradientUnits="userSpaceOnUse">
<stop stop-color="#024F48"/>
<stop offset="1" stop-color="#067132"/>
</linearGradient>
<linearGradient id="paint7_linear_799_738" x1="26.4882" y1="33.9925" x2="26.4882" y2="2.2303" gradientUnits="userSpaceOnUse">
<stop stop-color="#008056"/>
<stop offset="1" stop-color="#A4CC7B"/>
</linearGradient>
<linearGradient id="paint8_linear_799_738" x1="49.9987" y1="21.5003" x2="49.9987" y2="-0.00158535" gradientUnits="userSpaceOnUse">
<stop stop-color="#C9D400"/>
<stop offset="0.1845" stop-color="#CDD400"/>
<stop offset="0.3698" stop-color="#EED100"/>
<stop offset="0.5" stop-color="#FFCD0F"/>
<stop offset="1" stop-color="#F6A230"/>
</linearGradient>
<linearGradient id="paint9_linear_799_738" x1="51.6581" y1="20.6842" x2="51.6581" y2="0.0986729" gradientUnits="userSpaceOnUse">
<stop stop-color="#024F48"/>
<stop offset="1" stop-color="#067132"/>
</linearGradient>
<linearGradient id="paint10_linear_799_738" x1="53.2231" y1="21.1947" x2="53.2231" y2="1.01685" gradientUnits="userSpaceOnUse">
<stop stop-color="#008056"/>
<stop offset="1" stop-color="#A4CC7B"/>
</linearGradient>
<linearGradient id="paint11_linear_799_738" x1="3.62113" y1="40.3246" x2="5.09782" y2="28.5673" gradientUnits="userSpaceOnUse">
<stop stop-color="#024F48"/>
<stop offset="1" stop-color="#067132"/>
</linearGradient>
<linearGradient id="paint12_linear_799_738" x1="6.79668" y1="40.2392" x2="7.30597" y2="34.8967" gradientUnits="userSpaceOnUse">
<stop stop-color="#C9D400"/>
<stop offset="0.1845" stop-color="#CDD400"/>
<stop offset="0.3698" stop-color="#EED100"/>
<stop offset="0.5" stop-color="#FFCD0F"/>
<stop offset="1" stop-color="#F6A230"/>
</linearGradient>
<linearGradient id="paint13_linear_799_738" x1="10.5726" y1="31.3372" x2="10.5726" y2="18.3024" gradientUnits="userSpaceOnUse">
<stop stop-color="#020203"/>
<stop offset="1" stop-color="#7293CC"/>
</linearGradient>
<linearGradient id="paint14_linear_799_738" x1="52.8341" y1="20.5357" x2="52.8341" y2="14.6426" gradientUnits="userSpaceOnUse">
<stop stop-color="#D5E0F4"/>
<stop offset="1" stop-color="#020203"/>
</linearGradient>
<linearGradient id="paint15_linear_799_738" x1="47.8993" y1="4.70821" x2="59.5309" y2="4.70821" gradientUnits="userSpaceOnUse">
<stop stop-color="#020203"/>
<stop offset="1" stop-color="#D5E0F4"/>
</linearGradient>
</defs>
</svg>
