<svg width="262" height="299" viewBox="0 0 262 299" fill="none" xmlns="http://www.w3.org/2000/svg">
<path d="M19.9186 247.449C35.2101 279.96 184.304 276.013 221.98 251.004C259.655 226.024 177.338 13.9484 76.364 17.8576C2.65529 20.7356 -19.2849 164.038 19.9186 247.449Z" fill="#E5F4FD"/>
<path d="M240.071 233.639C233.704 232.577 229.878 198.64 237.484 192.135C245.09 185.631 260.5 200.655 260.441 212.027C260.383 223.399 251.148 235.525 240.071 233.639Z" fill="#E5F4FD"/>
<path d="M60.4373 8.57438C61.9843 13.3543 46.445 23.4468 41.0648 19.4758C35.6847 15.5048 38.9189 3.37728 43.8172 1.03082C48.7156 -1.31565 58.187 1.64776 60.4373 8.57438Z" fill="#E5F4FD"/>
<path d="M121.486 261.459C121.486 261.459 121.486 261.487 121.486 261.516C121.452 262.659 121.023 284.945 116.519 293.894C115.364 296.231 113.899 297.681 112.128 297.586C105.814 297.296 91.6077 270.535 85.9994 255.39C84.7313 251.926 83.8888 249.064 83.7267 247.263C83.5906 245.948 83.823 245.206 84.4516 245.209C85.7662 245.187 87.0803 245.251 88.3939 245.401C88.5652 245.43 88.7365 245.46 88.9078 245.489C104.614 247.456 119.779 260.05 121.344 261.401C121.458 261.43 121.486 261.459 121.486 261.459Z" fill="url(#paint0_linear_799_1831)"/>
<path d="M121.487 261.459C100.533 263.18 86.6749 252.022 83.7277 247.263C82.9624 246.059 82.9379 245.259 83.6811 245.205C85.1961 245.099 86.7674 245.164 88.3949 245.401C88.5662 245.431 88.7375 245.46 88.9088 245.49C102.756 247.647 119.637 260.135 121.345 261.401C121.459 261.43 121.487 261.459 121.487 261.459Z" fill="url(#paint1_linear_799_1831)"/>
<path d="M159.42 247.681C159.209 249.68 158.163 253.047 156.571 257.096C150.52 272.352 136.675 297.512 130.502 297.738C128.987 297.787 127.764 296.781 126.715 295.061C121.643 286.691 121.516 261.516 121.516 261.516C121.516 261.516 121.573 261.488 121.659 261.402C123.238 260.096 138.589 247.602 154.343 245.826C154.486 245.798 154.629 245.799 154.772 245.771C156.087 245.635 157.43 245.585 158.745 245.62C159.344 245.652 159.541 246.396 159.42 247.681Z" fill="url(#paint2_linear_799_1831)"/>
<path d="M159.419 247.68C156.481 252.409 142.479 263.452 121.516 261.515C121.516 261.515 121.573 261.487 121.659 261.402C123.38 260.153 140.445 247.811 154.343 245.825C154.486 245.798 154.629 245.798 154.772 245.77C156.402 245.55 157.973 245.501 159.487 245.623C160.201 245.684 160.169 246.484 159.419 247.68Z" fill="url(#paint3_linear_799_1831)"/>
<path opacity="0.3" d="M121.488 261.459C121.488 261.459 121.487 261.488 121.487 261.516C121.453 262.659 121.024 284.945 116.52 293.894C116.52 293.894 115.413 270.343 109.154 264.996C102.924 259.621 85.972 255.39 85.972 255.39C84.704 251.926 83.8615 249.064 83.6993 247.263C82.934 246.059 82.9096 245.259 83.6528 245.205C85.1678 245.099 86.739 245.164 88.3666 245.401C88.5379 245.431 88.7091 245.46 88.8804 245.49C104.586 247.456 119.752 260.05 121.316 261.401C121.459 261.43 121.488 261.459 121.488 261.459Z" fill="url(#paint4_linear_799_1831)"/>
<path opacity="0.3" d="M159.419 247.68C159.209 249.679 158.163 253.046 156.571 257.095C153.624 257.709 137.947 261.257 132.355 270.801C127.684 278.777 126.827 289.974 126.715 295.06C121.643 286.69 121.516 261.515 121.516 261.515C121.516 261.515 121.573 261.487 121.659 261.402C123.237 260.095 138.589 247.602 154.343 245.825C154.486 245.798 154.629 245.798 154.772 245.77C156.402 245.55 157.973 245.501 159.487 245.623C160.201 245.684 160.169 246.484 159.419 247.68Z" fill="url(#paint5_linear_799_1831)"/>
<path d="M92.247 179.5C91.7379 184.041 90.8834 189.066 89.3718 194.059C89.3718 194.059 87.9898 196.08 85.2019 199.209C78.304 206.974 62.913 221.554 39.216 228.776C38.6435 228.973 38.0712 229.141 37.4989 229.31C33.6642 230.404 26.7226 218.91 30.4016 209.185C30.7494 208.244 31.1825 207.361 31.73 206.478C33.2569 204.057 36.2456 200.786 40.2366 197.063C50.6022 187.315 67.6977 174.688 82.7952 167.165L82.8238 167.165C86.2616 165.439 89.6124 163.971 92.7325 162.901C92.6754 162.901 93.2671 170.076 92.247 179.5Z" fill="url(#paint6_linear_799_1831)"/>
<path d="M39.1888 228.804C38.7863 229.287 38.2982 229.742 37.8105 230.111C32.1025 234.311 23.8002 231.811 28.4912 214.233C28.4912 214.233 28.9045 211.663 30.4029 209.213C31.6421 207.191 33.6236 205.258 36.7397 204.989C44.4867 204.343 45.2821 221.92 39.1888 228.804Z" fill="url(#paint7_linear_799_1831)"/>
<path opacity="0.3" d="M92.2483 179.499L85.1745 199.236C78.2766 207.001 62.8856 221.581 39.1887 228.802C38.7861 229.286 38.298 229.741 37.8103 230.11C32.1024 234.309 23.8 231.809 28.491 214.232C28.491 214.232 28.9043 211.662 30.4028 209.212C30.7505 208.271 31.1837 207.388 31.7311 206.505C33.2581 204.084 36.2467 200.813 40.2378 197.09C39.9494 197.603 37.8997 201.65 42.1779 203.215C46.7697 204.896 71.0873 199.221 81.8327 187.846C92.5496 176.471 92.2617 165.812 82.7964 167.192C86.2342 165.466 89.585 163.998 92.7051 162.928C92.6767 162.899 93.2684 170.074 92.2483 179.499Z" fill="url(#paint8_linear_799_1831)"/>
<path d="M35.1314 212.094C29.1365 210.977 10.8384 224.084 4.90108 250.628C4.90108 250.628 5.29007 252.773 10.6896 252.972C16.0891 253.2 25.3981 243.333 31.7142 237.564C38.0305 231.768 45.1515 213.945 35.1314 212.094Z" fill="url(#paint9_linear_799_1831)"/>
<path d="M10.7188 252.974C10.7188 252.974 20.2205 238.965 22.1531 235.46C22.1531 235.46 25.8433 218.02 31.4903 214.563C37.0225 211.191 38.9745 215.001 40.1522 219.351C41.2727 223.729 31.9652 249.969 10.7188 252.974Z" fill="url(#paint10_linear_799_1831)"/>
<path d="M21.6512 238.315C21.6512 238.315 23.8819 243.498 26.7636 244.342C26.7636 244.342 24.4221 227.356 28.7258 218.406C28.7258 218.406 23.1966 226.75 21.6512 238.315Z" fill="url(#paint11_linear_799_1831)"/>
<path d="M31.1137 215.619C31.1137 215.619 36.9638 211.563 40.124 219.351C40.124 219.351 38.9728 232.061 31.792 244.825C31.792 244.825 28.1578 245.835 26.7655 244.314C23.6683 240.926 24.69 220.072 31.1137 215.619Z" fill="url(#paint12_linear_799_1831)"/>
<path d="M160.236 233.655C157.38 250.014 142.665 260.853 121.635 260.745C103.348 260.651 87.8674 253.742 83.8585 238.72C79.8497 223.698 81.5643 195.932 87.1109 178.673C87.9527 176.105 88.937 173.624 90.0922 171.259L90.0924 171.23C91.1321 169.092 92.2854 167.07 93.5811 165.162L93.5813 165.133C100.319 155.11 110.125 148.588 121.155 148.645C132.67 148.704 141.446 153.493 147.382 160.524C150.166 163.796 152.318 167.55 153.869 171.559C155.646 176.168 157.135 181.034 158.309 186.04C158.309 186.069 158.309 186.126 158.337 186.183C162.057 201.89 162.797 219.038 160.236 233.655Z" fill="url(#paint13_linear_799_1831)"/>
<path opacity="0.3" d="M160.236 233.656C157.38 250.014 142.665 260.854 121.635 260.746C103.348 260.651 87.8673 253.742 83.8584 238.72C79.8496 223.698 81.5642 195.932 87.1108 178.673C87.9527 176.106 88.937 173.625 90.0921 171.259L90.0923 171.231C90.0923 171.231 78.8452 207.891 87.5541 231.31C96.2917 254.729 137.526 254.455 151.55 238.983C164.913 224.279 158.949 189.501 158.337 186.184C162.057 201.89 162.797 219.039 160.236 233.656Z" fill="url(#paint14_linear_799_1831)"/>
<path d="M84.7092 223.522C87.9654 201.565 105.672 186.74 125.236 188.698C146.342 190.807 157.582 211.01 157.178 228.296C156.775 245.581 144.076 259.032 121.417 258.915C98.7863 258.798 81.6887 244.08 84.7092 223.522Z" fill="url(#paint15_linear_799_1831)"/>
<path d="M84.8983 225.35C88.1545 203.393 105.861 188.568 125.425 190.526C146.531 192.635 157.771 212.838 157.367 230.124C156.964 247.409 144.265 260.86 121.606 260.743C98.9754 260.626 81.8493 245.908 84.8983 225.35Z" fill="url(#paint16_linear_799_1831)"/>
<path opacity="0.5" d="M147.41 160.495C142.888 167.501 118.208 171.46 103.985 170.072C91.5894 168.865 93.4925 165.532 93.5805 165.104L93.5806 165.075C100.319 155.052 110.125 148.53 121.154 148.587C132.698 148.703 141.474 153.463 147.41 160.495Z" fill="url(#paint17_linear_799_1831)"/>
<path d="M138.605 172.621C137.46 172.987 137.356 182.245 138.548 183.737C139.74 185.229 141.657 184.781 142.326 182.613C142.965 180.445 140.323 172.059 138.605 172.621Z" fill="white"/>
<path d="M140.65 186.204C139.706 186.428 139.58 188.713 140.005 189.516C140.429 190.318 142.116 190.155 142.378 189.185C142.64 188.215 141.623 185.981 140.65 186.204Z" fill="white"/>
<path d="M148.771 162.217C148.771 162.217 147.408 160.524 145.784 159.658C145.784 159.658 150.404 183.599 159.812 193.42C159.841 193.42 155.842 170.854 148.771 162.217Z" fill="url(#paint18_linear_799_1831)"/>
<path d="M159.781 49.7469C159.781 49.7469 168.936 41.936 180.087 40.6219C180.087 40.6219 183.479 42.2966 187.387 54.6038C191.267 66.9108 183.856 91.1324 183.856 91.1324L159.781 49.7469Z" fill="url(#paint19_linear_799_1831)"/>
<path d="M180.089 40.623C180.089 40.623 171.01 50.2345 170.93 65.8357L174.404 68.0538L184.685 47.0759C184.685 47.0759 181.347 40.458 180.089 40.623Z" fill="url(#paint20_linear_799_1831)"/>
<path d="M174.095 66.9944C174.095 66.9944 171.764 53.6667 180.586 43.9396C180.586 43.9396 190.449 48.648 194.474 65.9563C198.472 83.2645 187.76 93.5819 187.76 93.5819L174.095 66.9944Z" fill="url(#paint21_linear_799_1831)"/>
<path d="M169.124 44.4532C167.434 45.3589 167.567 47.1598 171.056 46.7206C174.544 46.2813 176.444 43.5765 176.075 43.0317C175.706 42.5154 171.015 43.4343 169.124 44.4532Z" fill="white"/>
<path d="M83.3366 51.3268C83.3366 51.3268 74.262 43.4221 63.1252 41.9932C63.1252 41.9932 59.7164 43.6329 55.6814 55.8992C51.675 68.1656 58.8364 92.4623 58.8364 92.4623L83.3366 51.3268Z" fill="url(#paint22_linear_799_1831)"/>
<path d="M63.124 41.991C63.124 41.991 72.1037 51.6954 72.0233 67.2967L68.526 69.4789L58.462 48.3962C58.462 48.3962 61.8677 41.8131 63.124 41.991Z" fill="url(#paint23_linear_799_1831)"/>
<path d="M68.8467 68.4226C68.8467 68.4226 71.3154 55.1195 62.5936 45.3021C62.5936 45.3021 52.6831 49.9088 48.4794 67.1747C44.3044 84.4408 56.0461 96.0168 56.0461 96.0168L68.8467 68.4226Z" fill="url(#paint24_linear_799_1831)"/>
<path d="M74.0762 45.934C75.7574 46.857 75.6051 48.6565 72.1215 48.1813C68.6378 47.7062 66.7659 44.9819 67.1402 44.441C67.5143 43.9285 72.1671 44.8955 74.0762 45.934Z" fill="white"/>
<path d="M57.3009 135.401C71.0791 167.675 175.597 158.155 188.22 131.789C202.027 102.943 170.992 31.2893 120.914 34.3462C78.6388 36.9288 39.5697 93.9053 57.3009 135.401Z" fill="url(#paint25_linear_799_1831)"/>
<path d="M63.0939 130.887C76.3019 157.357 167.503 153.484 180.944 129.264C192.365 108.721 165.972 45.8069 120.156 47.7998C74.3411 49.7928 50.4233 105.476 63.0939 130.887Z" fill="url(#paint26_linear_799_1831)"/>
<path d="M135.655 40.3941C134.707 41.5322 145.74 46.3894 147.229 45.7399C148.719 45.0617 138.847 36.6101 135.655 40.3941Z" fill="white"/>
<path opacity="0.5" d="M67.5307 146.312C67.5307 146.312 68.9387 144.805 76.5337 140.387C81.6351 137.441 86.9681 133.925 87.7176 132.643C88.8478 129.592 66.008 131.274 66.008 131.274L57.3 135.401C57.3 135.401 60.7225 142.22 67.5307 146.312Z" fill="url(#paint27_linear_799_1831)"/>
<path d="M50.4187 78.8734C50.4187 78.8734 56.2853 82.704 52.3827 91.4563C52.3827 91.4563 24.7888 106.316 26.2764 122.64C27.5492 136.276 65.6149 129.872 65.6149 129.872L66.9631 134.422C66.9631 134.422 34.6136 140.57 23.5089 132.912C23.5089 132.912 19.7549 123.892 29.2393 107.71C38.7235 91.5575 50.4187 78.8734 50.4187 78.8734Z" fill="url(#paint28_linear_799_1831)"/>
<path d="M60.7925 128.59C57.3149 132.486 64.6362 136.81 70.6905 137.499C77.4587 138.276 89.5307 135.653 88.8515 128.82C88.1437 121.987 68.9832 119.459 60.7925 128.59Z" fill="url(#paint29_linear_799_1831)"/>
<path opacity="0.64" d="M61.2471 129.306C61.0414 130.419 85.2419 130.83 85.8355 126.547C86.4576 122.264 62.8917 120.685 61.2471 129.306Z" fill="white"/>
<path opacity="0.72" d="M188.574 51.7825C188.574 51.7825 185.394 47.7943 181.017 48.829C176.639 49.8637 176.283 63.6348 178.881 63.9911C181.508 64.3475 182.635 56.3809 184.67 55.1341C186.677 53.8872 190.189 54.3911 190.189 54.3911L188.574 51.7825Z" fill="url(#paint30_linear_799_1831)"/>
<path opacity="0.5" d="M148.078 152.698C148.078 152.698 133.183 137.505 128.46 122.394L165.765 147.245C165.793 147.274 153.055 151.666 148.078 152.698Z" fill="url(#paint31_linear_799_1831)"/>
<path opacity="0.72" d="M52.2171 56.9674C52.2171 56.9674 53.9128 55.0617 57.7099 55.7099C61.507 56.3581 63.6386 64.1413 65.5856 63.3798C67.5326 62.6183 66.1689 49.9814 61.0732 46.2691C61.0733 46.2405 54.4438 51.8355 52.2171 56.9674Z" fill="url(#paint32_linear_799_1831)"/>
<path d="M45.0878 87.6749C45.0878 87.6749 31.8366 102.894 32.6884 103.956C33.4828 105.046 45.9085 89.2222 45.0878 87.6749Z" fill="url(#paint33_linear_799_1831)"/>
<path opacity="0.64" d="M80.2647 93.0557C80.2647 93.0557 92.3893 91.318 104.172 94.979C105.941 95.531 100.516 89.131 92.2352 87.9454C83.9834 86.7313 79.7367 90.167 80.2647 93.0557Z" fill="white"/>
<path opacity="0.64" d="M109.106 118.865C111.196 112.618 119.081 112.944 120.652 118.553C122.336 124.534 115.385 131.385 112.276 130.283C109.139 129.181 107.568 123.486 109.106 118.865Z" fill="white"/>
<path d="M129.86 111.23C122.565 90.6755 142.13 64.4591 172.007 61.2697C172.007 61.2697 200.23 79.6455 193.428 129.93C193.428 129.93 148.702 164.447 129.86 111.23Z" fill="url(#paint34_linear_799_1831)"/>
<path d="M172.008 61.2695C172.008 61.2695 182.094 61.4072 193.93 71.3549C205.737 81.3025 211.217 110.305 193.428 129.93C193.428 129.93 201.523 89.5388 172.008 61.2695Z" fill="url(#paint35_linear_799_1831)"/>
<path opacity="0.64" d="M147.069 104.602C147.878 113.978 175.742 113.236 180.301 104.773C183.936 97.9906 173.564 75.7348 162.469 77.2779C151.374 78.7923 145.937 91.4228 147.069 104.602Z" fill="white"/>
<path d="M167.979 61.6193C144.177 61.4968 124.79 80.6847 124.668 104.487C124.545 128.289 143.733 147.675 167.535 147.798C191.337 147.92 210.724 128.732 210.846 104.93C210.969 81.1284 191.781 61.7419 167.979 61.6193ZM167.572 140.597C147.771 140.495 131.766 124.354 131.868 104.524C131.97 84.7221 148.111 68.7464 167.942 68.8485C187.772 68.9506 203.748 85.0917 203.646 104.893C203.544 124.724 187.403 140.699 167.572 140.597Z" fill="url(#paint36_linear_799_1831)"/>
<path d="M167.995 58.6203C144.193 58.4977 124.806 77.6858 124.683 101.488C124.561 125.29 143.749 144.676 167.551 144.799C191.353 144.921 210.739 125.733 210.862 101.931C210.985 78.1295 191.797 58.7428 167.995 58.6203ZM167.588 137.57C147.786 137.468 131.782 121.326 131.884 101.496C131.986 81.6946 148.127 65.7188 167.958 65.8209C187.788 65.923 203.764 82.0641 203.662 101.866C203.56 121.696 187.418 137.672 167.588 137.57Z" fill="url(#paint37_linear_799_1831)"/>
<path d="M215.402 168.79C215.402 168.79 205.996 186.372 194.079 192.169C182.191 197.965 164.169 190.814 158.363 186.156C150.424 179.771 147.622 157.926 150.965 157.943C154.022 157.959 156.982 160.288 166.662 161.567C166.691 161.567 166.691 161.567 166.691 161.567C169.289 161.923 172.374 162.168 176.088 162.301C184.888 162.575 193.042 160.531 198.337 158.758C202.202 157.464 204.551 156.333 204.551 156.333C211.58 156.312 215.402 168.79 215.402 168.79Z" fill="url(#paint38_linear_799_1831)"/>
<path d="M203.376 157.041C203.376 157.041 202.452 170.009 207.444 171.807C212.406 173.604 215.403 168.79 215.403 168.79L217.916 163.545L203.376 157.041Z" fill="url(#paint39_linear_799_1831)"/>
<path d="M188.113 141.245C188.113 141.245 205.785 160.853 217.888 168.83C217.888 168.83 225.436 167.983 226.961 160.505L201.17 130.397L188.113 141.245Z" fill="url(#paint40_linear_799_1831)"/>
<path opacity="0.5" d="M219.803 152.152C219.803 152.152 203.267 139.323 200.215 138.307C200.215 138.307 197.799 141.352 196.723 144.947C195.648 148.513 214.472 166.412 214.472 166.412C214.472 166.412 196.944 152.063 188.965 142.221C188.965 142.221 197.884 135.952 202.05 131.487L219.803 152.152Z" fill="url(#paint41_linear_799_1831)"/>
<path d="M198.23 152.099C197.996 153.127 190.728 155.118 188.776 151.251C188.578 150.85 188.408 150.477 188.296 150.105C187.17 146.785 188.784 144.193 190.302 143.429L190.331 143.458L190.444 143.573C191.439 144.521 198.435 151.158 198.23 152.099Z" fill="url(#paint42_linear_799_1831)"/>
<path d="M219.805 152.153L216.283 148.049C216.283 148.049 204.398 142.072 202.052 131.459C202.024 131.43 202.024 131.43 202.024 131.43C202.024 131.43 204.824 125.787 210.712 125.646C213.055 125.572 215.154 128.698 216.761 132.849L216.789 132.849C219.214 139.205 220.512 148.013 219.805 152.153Z" fill="url(#paint43_linear_799_1831)"/>
<path opacity="0.3" d="M215.402 168.79C215.402 168.79 205.996 186.372 194.079 192.169C182.191 197.965 164.169 190.814 158.363 186.156C150.424 179.771 147.622 157.926 150.965 157.943C154.022 157.959 156.982 160.288 166.662 161.567C166.063 161.507 157.836 160.921 156.367 163.228C154.84 165.649 171.345 189.994 187.895 183.336C204.475 176.649 201.195 158.83 198.366 158.758C198.337 158.758 198.337 158.758 198.337 158.758C202.202 157.464 204.551 156.333 204.551 156.333C211.58 156.312 215.402 168.79 215.402 168.79Z" fill="url(#paint44_linear_799_1831)"/>
<path d="M198.23 152.098C197.996 153.126 190.728 155.117 188.776 151.249C188.578 150.848 188.409 150.476 188.296 150.104C189.886 152.112 192.345 151.782 193.1 149.586C193.825 147.475 191.07 144.26 190.445 143.571C191.44 144.52 198.435 151.156 198.23 152.098Z" fill="url(#paint45_linear_799_1831)"/>
<path d="M219.804 152.153L216.282 148.048C216.282 148.048 204.397 142.072 202.052 131.459C202.335 132.032 208.032 140.948 214.143 141.808C218.654 142.431 216.9 133.45 216.761 132.849L216.789 132.849C219.214 139.205 220.511 148.013 219.804 152.153Z" fill="url(#paint46_linear_799_1831)"/>
<path d="M28.6941 225.063C28.6941 225.063 26.593 228.024 27.0271 232.513C27.0271 232.513 29.2711 229.553 28.6941 225.063Z" fill="white"/>
<path d="M12.6784 244.069C12.6784 244.069 13.096 240.67 16.0226 238.342C16.0226 238.342 14.626 243.193 12.6784 244.069Z" fill="white"/>
<path d="M49.1144 193.651C48.6612 192.878 57.5339 184.494 60.05 184.193C62.5661 183.891 59.1882 185.074 57.0577 188.178C54.9272 191.281 49.9358 195.056 49.1144 193.651Z" fill="white"/>
<path d="M62.4003 182.404C61.4914 181.342 66.4156 179.539 66.4156 179.539C66.4156 179.539 63.3662 183.495 62.4003 182.404Z" fill="white"/>
<path d="M167.434 167.572C167.081 169.599 177.396 169.652 177.206 167.623C177.045 165.593 167.787 165.545 167.434 167.572Z" fill="white"/>
<path d="M99.2899 271.488C97.9151 272.11 100.422 279.066 102.309 278.933C104.196 278.8 100.894 270.753 99.2899 271.488Z" fill="white"/>
<defs>
<linearGradient id="paint0_linear_799_1831" x1="97.6357" y1="295.705" x2="103.952" y2="247.425" gradientUnits="userSpaceOnUse">
<stop stop-color="#008056"/>
<stop offset="1" stop-color="#A4CC7B"/>
</linearGradient>
<linearGradient id="paint1_linear_799_1831" x1="102.281" y1="261.571" x2="102.365" y2="245.233" gradientUnits="userSpaceOnUse">
<stop stop-color="#024F48"/>
<stop offset="1" stop-color="#067132"/>
</linearGradient>
<linearGradient id="paint2_linear_799_1831" x1="134.735" y1="298.329" x2="141.919" y2="243.421" gradientUnits="userSpaceOnUse">
<stop stop-color="#008056"/>
<stop offset="1" stop-color="#A4CC7B"/>
</linearGradient>
<linearGradient id="paint3_linear_799_1831" x1="140.709" y1="261.813" x2="140.793" y2="245.474" gradientUnits="userSpaceOnUse">
<stop stop-color="#024F48"/>
<stop offset="1" stop-color="#067132"/>
</linearGradient>
<linearGradient id="paint4_linear_799_1831" x1="102.115" y1="293.827" x2="102.366" y2="245.233" gradientUnits="userSpaceOnUse">
<stop stop-color="#926AAB"/>
<stop offset="1" stop-color="#CDEAFC"/>
</linearGradient>
<linearGradient id="paint5_linear_799_1831" x1="140.537" y1="295.13" x2="140.793" y2="245.474" gradientUnits="userSpaceOnUse">
<stop stop-color="#926AAB"/>
<stop offset="1" stop-color="#CDEAFC"/>
</linearGradient>
<linearGradient id="paint6_linear_799_1831" x1="56.183" y1="231.947" x2="65.68" y2="159.356" gradientUnits="userSpaceOnUse">
<stop stop-color="#008056"/>
<stop offset="1" stop-color="#A4CC7B"/>
</linearGradient>
<linearGradient id="paint7_linear_799_1831" x1="35.0879" y1="231.893" x2="35.2265" y2="204.964" gradientUnits="userSpaceOnUse">
<stop stop-color="#024F48"/>
<stop offset="1" stop-color="#067132"/>
</linearGradient>
<linearGradient id="paint8_linear_799_1831" x1="59.7806" y1="232.019" x2="60.1374" y2="162.719" gradientUnits="userSpaceOnUse">
<stop stop-color="#926AAB"/>
<stop offset="1" stop-color="#CDEAFC"/>
</linearGradient>
<linearGradient id="paint9_linear_799_1831" x1="20.0429" y1="254.266" x2="25.7236" y2="210.844" gradientUnits="userSpaceOnUse">
<stop stop-color="#008056"/>
<stop offset="1" stop-color="#A4CC7B"/>
</linearGradient>
<linearGradient id="paint10_linear_799_1831" x1="25.3817" y1="253.051" x2="25.5868" y2="213.221" gradientUnits="userSpaceOnUse">
<stop stop-color="#024F48"/>
<stop offset="1" stop-color="#067132"/>
</linearGradient>
<linearGradient id="paint11_linear_799_1831" x1="25.1129" y1="244.317" x2="25.2465" y2="218.378" gradientUnits="userSpaceOnUse">
<stop stop-color="#024F48"/>
<stop offset="1" stop-color="#067132"/>
</linearGradient>
<linearGradient id="paint12_linear_799_1831" x1="30.0721" y1="245.319" x2="34.107" y2="214.478" gradientUnits="userSpaceOnUse">
<stop stop-color="#008056"/>
<stop offset="1" stop-color="#A4CC7B"/>
</linearGradient>
<linearGradient id="paint13_linear_799_1831" x1="115.797" y1="260.52" x2="130.32" y2="149.512" gradientUnits="userSpaceOnUse">
<stop stop-color="#008056"/>
<stop offset="1" stop-color="#A4CC7B"/>
</linearGradient>
<linearGradient id="paint14_linear_799_1831" x1="121.467" y1="260.74" x2="121.927" y2="171.371" gradientUnits="userSpaceOnUse">
<stop stop-color="#926AAB"/>
<stop offset="1" stop-color="#CDEAFC"/>
</linearGradient>
<linearGradient id="paint15_linear_799_1831" x1="120.621" y1="258.918" x2="120.983" y2="188.531" gradientUnits="userSpaceOnUse">
<stop stop-color="#B59CCA"/>
<stop offset="1" stop-color="#938AC2"/>
</linearGradient>
<linearGradient id="paint16_linear_799_1831" x1="84.5694" y1="225.356" x2="157.408" y2="225.731" gradientUnits="userSpaceOnUse">
<stop stop-color="#C9D400"/>
<stop offset="0.1845" stop-color="#CDD400"/>
<stop offset="0.3698" stop-color="#EED100"/>
<stop offset="0.5" stop-color="#FFCD0F"/>
<stop offset="1" stop-color="#F6A230"/>
</linearGradient>
<linearGradient id="paint17_linear_799_1831" x1="120.388" y1="170.415" x2="120.501" y2="148.629" gradientUnits="userSpaceOnUse">
<stop stop-color="#8FA3D4"/>
<stop offset="1" stop-color="#6E5CA4"/>
</linearGradient>
<linearGradient id="paint18_linear_799_1831" x1="145.715" y1="176.496" x2="159.928" y2="176.569" gradientUnits="userSpaceOnUse">
<stop stop-color="#7975B5"/>
<stop offset="1" stop-color="#938AC2"/>
</linearGradient>
<linearGradient id="paint19_linear_799_1831" x1="173.974" y1="91.1127" x2="174.234" y2="40.6003" gradientUnits="userSpaceOnUse">
<stop stop-color="#008056"/>
<stop offset="1" stop-color="#A4CC7B"/>
</linearGradient>
<linearGradient id="paint20_linear_799_1831" x1="177.763" y1="68.076" x2="177.904" y2="40.6166" gradientUnits="userSpaceOnUse">
<stop stop-color="#024F48"/>
<stop offset="1" stop-color="#067132"/>
</linearGradient>
<linearGradient id="paint21_linear_799_1831" x1="184.458" y1="93.5843" x2="184.714" y2="43.9543" gradientUnits="userSpaceOnUse">
<stop stop-color="#C9D400"/>
<stop offset="0.1845" stop-color="#CDD400"/>
<stop offset="0.3698" stop-color="#EED100"/>
<stop offset="0.5" stop-color="#FFCD0F"/>
<stop offset="1" stop-color="#F6A230"/>
</linearGradient>
<linearGradient id="paint22_linear_799_1831" x1="68.7317" y1="92.5427" x2="68.9917" y2="42.0303" gradientUnits="userSpaceOnUse">
<stop stop-color="#008056"/>
<stop offset="1" stop-color="#A4CC7B"/>
</linearGradient>
<linearGradient id="paint23_linear_799_1831" x1="65.1809" y1="69.4648" x2="65.3222" y2="42.0054" gradientUnits="userSpaceOnUse">
<stop stop-color="#024F48"/>
<stop offset="1" stop-color="#067132"/>
</linearGradient>
<linearGradient id="paint24_linear_799_1831" x1="58.2549" y1="96.023" x2="58.5162" y2="45.2725" gradientUnits="userSpaceOnUse">
<stop stop-color="#C9D400"/>
<stop offset="0.1845" stop-color="#CDD400"/>
<stop offset="0.3698" stop-color="#EED100"/>
<stop offset="0.5" stop-color="#FFCD0F"/>
<stop offset="1" stop-color="#F6A230"/>
</linearGradient>
<linearGradient id="paint25_linear_799_1831" x1="116.49" y1="157.521" x2="132.529" y2="34.9269" gradientUnits="userSpaceOnUse">
<stop stop-color="#008056"/>
<stop offset="1" stop-color="#A4CC7B"/>
</linearGradient>
<linearGradient id="paint26_linear_799_1831" x1="121.491" y1="149.146" x2="122.014" y2="47.7357" gradientUnits="userSpaceOnUse">
<stop stop-color="#C9D400"/>
<stop offset="0.1845" stop-color="#CDD400"/>
<stop offset="0.3698" stop-color="#EED100"/>
<stop offset="0.5" stop-color="#FFCD0F"/>
<stop offset="1" stop-color="#F6A230"/>
</linearGradient>
<linearGradient id="paint27_linear_799_1831" x1="72.4706" y1="146.325" x2="72.5507" y2="130.775" gradientUnits="userSpaceOnUse">
<stop stop-color="#8FA3D4"/>
<stop offset="1" stop-color="#6E5CA4"/>
</linearGradient>
<linearGradient id="paint28_linear_799_1831" x1="43.9048" y1="137.587" x2="51.5674" y2="79.0188" gradientUnits="userSpaceOnUse">
<stop stop-color="#024F48"/>
<stop offset="1" stop-color="#067132"/>
</linearGradient>
<linearGradient id="paint29_linear_799_1831" x1="72.4839" y1="138.083" x2="76.3531" y2="122.021" gradientUnits="userSpaceOnUse">
<stop stop-color="#C9D400"/>
<stop offset="0.1845" stop-color="#CDD400"/>
<stop offset="0.3698" stop-color="#EED100"/>
<stop offset="0.5" stop-color="#FFCD0F"/>
<stop offset="1" stop-color="#F6A230"/>
</linearGradient>
<linearGradient id="paint30_linear_799_1831" x1="177.246" y1="56.3089" x2="190.158" y2="56.3754" gradientUnits="userSpaceOnUse">
<stop stop-color="#020203"/>
<stop offset="1" stop-color="#D5E0F4"/>
</linearGradient>
<linearGradient id="paint31_linear_799_1831" x1="147.037" y1="152.7" x2="147.192" y2="122.508" gradientUnits="userSpaceOnUse">
<stop stop-color="#8FA3D4"/>
<stop offset="1" stop-color="#6E5CA4"/>
</linearGradient>
<linearGradient id="paint32_linear_799_1831" x1="52.2411" y1="54.7662" x2="66.472" y2="54.8395" gradientUnits="userSpaceOnUse">
<stop stop-color="#D5E0F4"/>
<stop offset="1" stop-color="#020203"/>
</linearGradient>
<linearGradient id="paint33_linear_799_1831" x1="38.8326" y1="104.05" x2="38.917" y2="87.6495" gradientUnits="userSpaceOnUse">
<stop stop-color="#CABFE0"/>
<stop offset="1" stop-color="#E7DBED"/>
</linearGradient>
<linearGradient id="paint34_linear_799_1831" x1="161.235" y1="140.929" x2="161.645" y2="61.2152" gradientUnits="userSpaceOnUse">
<stop stop-color="#C9D400"/>
<stop offset="0.1845" stop-color="#CDD400"/>
<stop offset="0.3698" stop-color="#EED100"/>
<stop offset="0.5" stop-color="#FFCD0F"/>
<stop offset="1" stop-color="#F6A230"/>
</linearGradient>
<linearGradient id="paint35_linear_799_1831" x1="182.344" y1="128.487" x2="190.824" y2="63.6735" gradientUnits="userSpaceOnUse">
<stop stop-color="#CABFE0"/>
<stop offset="1" stop-color="#E7DBED"/>
</linearGradient>
<linearGradient id="paint36_linear_799_1831" x1="157.672" y1="146.61" x2="177.855" y2="62.8177" gradientUnits="userSpaceOnUse">
<stop stop-color="#D52D88"/>
<stop offset="1" stop-color="#E7297E"/>
</linearGradient>
<linearGradient id="paint37_linear_799_1831" x1="157.688" y1="143.597" x2="177.871" y2="59.8047" gradientUnits="userSpaceOnUse">
<stop stop-color="#9E559D"/>
<stop offset="1" stop-color="#EB72A9"/>
</linearGradient>
<linearGradient id="paint38_linear_799_1831" x1="178.683" y1="194.008" x2="183.974" y2="153.568" gradientUnits="userSpaceOnUse">
<stop stop-color="#008056"/>
<stop offset="1" stop-color="#A4CC7B"/>
</linearGradient>
<linearGradient id="paint39_linear_799_1831" x1="210.547" y1="172.221" x2="210.625" y2="157.083" gradientUnits="userSpaceOnUse">
<stop stop-color="#024F48"/>
<stop offset="1" stop-color="#067132"/>
</linearGradient>
<linearGradient id="paint40_linear_799_1831" x1="206.23" y1="167.917" x2="209.042" y2="130.994" gradientUnits="userSpaceOnUse">
<stop stop-color="#734E9A"/>
<stop offset="1" stop-color="#E7297E"/>
</linearGradient>
<linearGradient id="paint41_linear_799_1831" x1="204.303" y1="166.338" x2="204.483" y2="131.486" gradientUnits="userSpaceOnUse">
<stop stop-color="#8FA3D4"/>
<stop offset="1" stop-color="#6E5CA4"/>
</linearGradient>
<linearGradient id="paint42_linear_799_1831" x1="192.579" y1="153.5" x2="193.834" y2="143.905" gradientUnits="userSpaceOnUse">
<stop stop-color="#008056"/>
<stop offset="1" stop-color="#A4CC7B"/>
</linearGradient>
<linearGradient id="paint43_linear_799_1831" x1="209.753" y1="150.834" x2="213.012" y2="125.928" gradientUnits="userSpaceOnUse">
<stop stop-color="#008056"/>
<stop offset="1" stop-color="#A4CC7B"/>
</linearGradient>
<linearGradient id="paint44_linear_799_1831" x1="182.337" y1="194.349" x2="182.533" y2="156.197" gradientUnits="userSpaceOnUse">
<stop stop-color="#926AAB"/>
<stop offset="1" stop-color="#CDEAFC"/>
</linearGradient>
<linearGradient id="paint45_linear_799_1831" x1="193.237" y1="153.536" x2="193.288" y2="143.585" gradientUnits="userSpaceOnUse">
<stop stop-color="#008056"/>
<stop offset="1" stop-color="#A4CC7B"/>
</linearGradient>
<linearGradient id="paint46_linear_799_1831" x1="210.972" y1="152.103" x2="211.078" y2="131.52" gradientUnits="userSpaceOnUse">
<stop stop-color="#008056"/>
<stop offset="1" stop-color="#A4CC7B"/>
</linearGradient>
</defs>
</svg>
