<svg width="582" height="531" viewBox="0 0 582 531" fill="none" xmlns="http://www.w3.org/2000/svg">
<path d="M426.015 59.8565C541.461 24.6267 678.933 148.996 665.675 276.582C652.385 404.121 557.664 456.364 529.799 526.525C495.101 613.945 437.727 668.487 327.286 617.953C174.581 548.065 236.854 117.609 426.015 59.8565Z" fill="#E5F4FD"/>
<path d="M172.677 482.444C180.356 475.871 189.503 471.114 199.291 468.678C200.876 468.271 202.524 467.956 204.106 468.242C207.189 468.799 209.463 471.578 210.605 474.519C213.434 481.685 210.838 490.401 205.102 495.488C199.319 500.607 190.883 502.104 183.44 500.146C179.353 499.04 175.341 496.846 173.271 493.165C171.201 489.484 171.576 484.245 174.98 481.676C176.31 481.998 176.818 483.927 175.827 484.891L172.677 482.444Z" fill="#E5F4FD"/>
<path d="M426.438 53.89C434.117 47.317 443.263 42.5606 453.052 40.1246C454.636 39.7169 456.285 39.4024 457.867 39.6882C460.95 40.2454 463.224 43.0241 464.366 45.9656C467.195 53.131 464.599 61.8473 458.862 66.9342C453.126 72.0211 444.644 73.5501 437.201 71.5927C433.114 70.4868 429.102 68.2921 427.032 64.6114C424.962 60.9306 425.337 55.6913 428.74 53.1221C430.07 53.4441 430.579 55.3731 429.588 56.3371L426.438 53.89Z" fill="#E5F4FD"/>
<path d="M203.516 486.427C204.37 482.376 207.456 478.852 211.372 477.518C214.465 480.281 216.668 484.354 216.098 488.415C215.527 492.475 211.481 496.112 207.445 495.179C203.442 494.292 201.638 488.006 205.11 485.735L203.516 486.427Z" fill="#E5F4FD"/>
<path d="M235.949 468.689C235.207 466.922 235.341 464.823 236.256 463.152C237.05 463.499 237.83 463.926 238.41 464.562C238.989 465.197 239.259 466.185 238.879 466.932C238.363 467.982 236.948 468.135 235.765 468.125C236.006 468.373 236.215 468.574 236.456 468.821L235.949 468.689Z" fill="#E5F4FD"/>
<path d="M228.727 470.934C228.163 471.118 227.681 471.521 227.391 471.999C228.743 472.651 230.337 471.96 231.648 471.258C232.381 470.818 233.221 470.235 233.047 469.388C232.989 468.805 232.446 468.422 232.169 467.923C231.615 466.924 231.836 465.25 230.711 464.924C230.092 464.73 229.392 465.216 229.12 465.82C228.847 466.424 228.845 467.118 228.888 467.779C228.915 469.212 229.021 470.66 229.048 472.094L228.727 470.934Z" fill="#E5F4FD"/>
<path opacity="0.5" d="M318.465 433.834C318.949 432.738 320.883 433.332 321.078 434.51C321.353 435.703 320.617 436.836 319.91 437.81C318.415 437.05 317.547 435.301 317.721 433.659L318.465 433.834Z" fill="#E5F4FD"/>
<path d="M339.433 471.426C339.254 471.966 339.722 472.54 340.308 472.687C340.861 472.787 341.425 472.603 341.892 472.279C342.172 472.085 342.419 471.844 342.556 471.542C342.889 470.826 342.479 469.936 341.749 469.681C341.019 469.427 340.161 469.884 339.906 470.614C339.652 471.344 340.063 472.234 340.746 472.521L339.433 471.426Z" fill="#E5F4FD"/>
<path d="M252.218 476.488C251.007 476.637 250.078 474.999 250.753 473.978C251.367 473.966 252.046 474.048 252.557 474.385C253.068 474.723 253.381 475.473 253.155 476.045C252.929 476.617 251.988 476.855 251.632 476.341L252.218 476.488Z" fill="#E5F4FD"/>
<path d="M225.142 475.636C224.192 474.566 223.738 473.014 223.995 471.591C225.12 471.917 226.291 472.21 227.416 472.536C227.956 472.715 228.541 472.862 228.88 473.25C229.635 474.039 229.331 475.495 228.333 476.049C227.414 476.618 226.116 476.343 225.267 475.618L225.142 475.636Z" fill="#E5F4FD"/>
<path opacity="0.5" d="M323.16 468.407C323.556 468.478 323.951 468.55 324.3 468.653C324.469 469.296 324.168 470.058 323.511 470.307C322.933 470.57 322.091 470.255 321.922 469.612C321.752 468.969 322.337 468.217 322.97 468.331L323.16 468.407Z" fill="#E5F4FD"/>
<path d="M243.658 474.613C243.939 475.317 243.038 476.011 242.265 475.994C241.492 475.977 240.759 475.518 239.968 475.375C239.178 475.232 238.316 475.484 237.727 476.031C237.386 476.337 237.095 476.815 237.182 477.239C237.251 477.537 237.492 477.785 237.654 478.018C238.715 479.149 239.963 480.15 241.483 480.547C243.003 480.944 244.792 480.533 245.635 479.257C246.281 478.393 246.384 477.147 245.909 476.162C245.433 475.178 244.412 474.504 243.323 474.43L243.658 474.613Z" fill="#E5F4FD"/>
<path d="M231.224 457.795C230.626 457.033 230.934 455.783 231.727 455.232C232.521 454.681 233.624 454.677 234.516 455.164C234.929 455.362 235.267 455.749 235.149 456.177C235.06 456.447 234.747 456.594 234.481 456.71C233.372 457.203 232.262 457.696 231.199 458.157L231.224 457.795Z" fill="#E5F4FD"/>
<path d="M275.28 444.647C275.537 446.612 278.129 447.856 279.827 446.816C279.405 445.311 278.904 443.791 277.736 442.805C276.567 441.818 274.454 441.763 273.722 443.1C273.896 443.948 274.055 444.875 274.228 445.722L275.28 444.647Z" fill="#E5F4FD"/>
<path d="M258.144 467.186C258.215 466.791 258.333 466.363 258.405 465.968C259.051 466.003 259.763 466.132 260.213 466.58C260.662 467.029 260.477 468.057 259.816 468.101C259.564 468.137 259.341 468.015 259.118 467.893C258.449 467.527 257.734 467.194 257.065 466.828L258.144 467.186Z" fill="#E5F4FD"/>
<path d="M279.978 462.479C280.433 461.541 280.889 460.603 281.664 459.926C282.439 459.25 283.6 458.929 284.524 459.463C284.97 459.707 285.293 460.174 285.459 460.612C286.054 462.067 285.19 463.911 283.717 464.38C282.277 464.895 280.493 463.919 280.025 462.447L279.978 462.479Z" fill="#E5F4FD"/>
<path d="M285.014 452.898C285.607 452.556 286.246 452.181 286.838 451.839C287.223 452.195 287.5 452.694 287.699 453.179C287.067 453.963 285.73 454.129 284.961 453.419L285.014 452.898Z" fill="#E5F4FD"/>
<path d="M225.201 423.8C229.073 422.704 233.23 422.516 237.183 423.231C237.816 423.345 238.481 423.506 239.024 423.89C240.077 424.611 240.402 425.976 240.332 427.269C240.184 430.345 237.729 433.086 234.798 433.944C231.867 434.803 228.51 433.951 226.126 432.01C224.813 430.915 223.73 429.454 223.588 427.755C223.446 426.055 224.468 424.24 226.131 423.846C226.563 424.169 226.42 424.96 225.935 425.158L225.201 423.8Z" fill="#E5F4FD"/>
<path d="M226.169 507.214C226.624 505.377 227.98 503.745 229.747 503.002C230.14 503.767 230.565 504.579 230.659 505.413C230.753 506.246 230.377 507.199 229.612 507.591C228.581 508.099 227.323 507.382 226.381 506.721C226.403 507.052 226.471 507.35 226.493 507.681L226.169 507.214Z" fill="#E5F4FD"/>
<path d="M240.039 507.071C240.362 506.639 240.764 506.222 241.314 506.117C241.784 505.998 242.356 506.224 242.849 506.435C244.182 506.962 245.53 507.41 246.907 507.699C244.831 508.794 242.709 509.921 240.633 511.015C240.493 511.113 240.274 511.195 240.166 511.339C239.75 511.835 240.221 512.615 240.107 513.247C240.015 514.21 238.873 514.657 237.913 514.77C231.134 515.463 238.159 509.344 240.039 507.071Z" fill="#E5F4FD"/>
<path d="M213.311 506.32C213.205 504.872 213.761 503.381 214.83 502.431C215.557 503.379 216.284 504.326 217.011 505.274C217.335 505.741 217.705 506.175 217.763 506.757C217.894 507.842 216.777 508.825 215.656 508.704C214.535 508.583 213.729 507.621 213.473 506.554L213.311 506.32Z" fill="#E5F4FD"/>
<path d="M228.903 495.707C228.869 494.762 229.878 493.924 230.856 493.937C231.833 493.95 232.728 494.643 233.139 495.534C233.319 495.893 233.377 496.475 233.05 496.701C232.817 496.863 232.501 496.806 232.185 496.749C231.013 496.456 229.827 496.241 228.655 495.948L228.903 495.707Z" fill="#E5F4FD"/>
<path d="M217.696 482.945C218.151 482.007 218.606 481.068 219.382 480.392C220.157 479.716 221.318 479.395 222.242 479.929C222.687 480.173 223.011 480.64 223.177 481.078C223.771 482.532 222.907 484.377 221.435 484.845C219.994 485.361 218.211 484.385 217.742 482.913L217.696 482.945Z" fill="#E5F4FD"/>
<path d="M255.422 447.224C256.479 447.251 257.084 448.422 257.401 449.378C257.751 450.38 258.151 451.554 259.164 451.819C259.434 451.909 259.764 451.887 259.965 451.678C260.54 451.21 260.004 450.338 259.802 449.648C259.664 449.052 259.811 448.466 259.785 447.931C259.791 446.544 258.805 445.222 257.504 444.742C256.749 444.851 256.114 445.43 255.939 446.174C255.763 446.918 256.03 447.701 256.638 448.178L255.422 447.224Z" fill="#E5F4FD"/>
<path d="M280.028 454.978C281.085 455.005 281.69 456.176 282.007 457.132C282.357 458.134 282.757 459.308 283.77 459.573C284.04 459.662 284.37 459.641 284.571 459.432C285.146 458.964 284.609 458.092 284.408 457.402C284.27 456.806 284.417 456.22 284.391 455.685C284.397 454.298 283.411 452.976 282.11 452.496C281.355 452.605 280.72 453.184 280.545 453.928C280.369 454.672 280.636 455.455 281.244 455.932L280.028 454.978Z" fill="#E5F4FD"/>
<path d="M296.453 444.966C297.121 444.433 297.885 444.041 298.733 443.868C298.859 443.85 298.985 443.831 299.143 443.86C299.38 443.903 299.574 444.183 299.657 444.402C299.873 445.013 299.619 445.742 299.138 446.145C298.657 446.548 297.903 446.657 297.284 446.463C296.936 446.36 296.601 446.177 296.454 445.864C296.306 445.552 296.345 445.11 296.625 444.916C296.737 444.976 296.755 445.102 296.694 445.214L296.453 444.966Z" fill="#E5F4FD"/>
<path d="M185.308 497.056C185.762 495.219 187.118 493.586 188.885 492.844C189.278 493.609 189.703 494.421 189.797 495.254C189.845 496.12 189.515 497.04 188.75 497.433C187.72 497.941 186.461 497.223 185.519 496.563C185.541 496.894 185.61 497.192 185.632 497.522L185.308 497.056Z" fill="#E5F4FD"/>
<path d="M193.641 513.054C192.606 512.458 192.823 510.579 193.919 510.164C194.429 510.502 194.911 510.997 195.095 511.561C195.311 512.171 195.136 512.916 194.59 513.225C194.044 513.535 193.171 513.173 193.159 512.558L193.641 513.054Z" fill="#E5F4FD"/>
<path d="M214.671 488.847C213.636 488.251 213.853 486.372 214.948 485.957C215.459 486.295 215.941 486.79 216.125 487.354C216.309 487.918 216.166 488.709 215.62 489.018C215.074 489.328 214.201 488.966 214.189 488.351L214.671 488.847Z" fill="#E5F4FD"/>
<path d="M263.03 454.6C262.808 455.376 261.705 455.381 261.065 454.857C260.457 454.38 260.158 453.55 259.643 453.008C259.097 452.419 258.255 452.104 257.469 452.166C257.012 452.206 256.495 452.357 256.284 452.85C256.147 453.152 256.169 453.482 256.238 453.781C256.408 455.322 256.863 456.874 257.831 458.069C258.799 459.264 260.499 460.021 261.972 459.552C263.006 459.249 263.824 458.336 264.024 457.229C264.257 456.169 263.81 455.026 263.04 454.316L263.03 454.6Z" fill="#E5F4FD"/>
<path d="M258.639 445.48C258.417 446.257 257.314 446.262 256.674 445.738C256.066 445.261 255.767 444.431 255.252 443.889C254.706 443.3 253.864 442.985 253.078 443.047C252.621 443.087 252.104 443.238 251.893 443.731C251.756 444.033 251.778 444.363 251.847 444.661C252.017 446.203 252.472 447.754 253.44 448.95C254.408 450.145 256.108 450.902 257.581 450.433C258.615 450.13 259.433 449.217 259.633 448.11C259.866 447.049 259.419 445.907 258.649 445.197L258.639 445.48Z" fill="#E5F4FD"/>
<path d="M246.224 454.993C246.002 455.769 244.899 455.774 244.259 455.25C243.651 454.773 243.352 453.943 242.838 453.401C242.291 452.813 241.45 452.498 240.663 452.559C240.207 452.599 239.689 452.751 239.478 453.243C239.342 453.545 239.364 453.876 239.432 454.174C239.603 455.715 240.057 457.267 241.025 458.463C241.993 459.658 243.693 460.414 245.166 459.946C246.2 459.643 247.019 458.729 247.219 457.622C247.451 456.562 247.005 455.42 246.235 454.709L246.224 454.993Z" fill="#E5F4FD"/>
<path d="M329.641 526.281C329.419 527.058 328.316 527.062 327.676 526.538C327.068 526.061 326.769 525.231 326.255 524.689C325.708 524.101 324.867 523.786 324.08 523.847C323.624 523.887 323.107 524.039 322.895 524.531C322.759 524.833 322.781 525.164 322.849 525.462C323.02 527.003 323.474 528.555 324.442 529.751C325.41 530.946 327.11 531.702 328.583 531.234C329.618 530.931 330.436 530.017 330.636 528.91C330.836 527.803 330.422 526.708 329.652 525.997L329.641 526.281Z" fill="#E5F4FD"/>
<path d="M203.971 509.202C204.266 508.928 204.607 508.623 204.934 508.396C205.43 508.812 205.912 509.307 206.002 509.936C206.046 510.597 205.35 511.288 204.807 510.904C204.584 510.782 204.501 510.563 204.386 510.297C204.058 509.626 203.698 508.907 203.37 508.236L203.971 509.202Z" fill="#E5F4FD"/>
<path d="M285.912 500.13C286.367 499.192 286.822 498.254 287.598 497.578C288.373 496.901 289.533 496.58 290.457 497.115C290.903 497.358 291.227 497.825 291.393 498.263C291.987 499.718 291.123 501.562 289.651 502.031C288.21 502.546 286.427 501.571 285.958 500.098L285.912 500.13Z" fill="#E5F4FD"/>
<path d="M202.798 477.516C201.47 478.093 201.339 480.396 202.644 481.081C203.478 480.986 204.261 480.72 204.914 480.266C204.662 479.404 204.111 478.611 203.331 478.184L202.798 477.516Z" fill="#E5F4FD"/>
<path opacity="0.5" d="M293.194 489.2C293.564 488.736 293.901 488.225 294.4 487.948C294.899 487.671 295.607 487.594 296.071 487.964C296.809 488.628 296.389 489.818 296.8 490.708C297.164 491.632 298.293 492.162 298.358 493.154C298.392 494.099 297.253 494.75 296.305 494.579C295.356 494.407 294.647 493.585 294.05 492.824C293.517 492.156 292.999 491.41 292.951 490.544C292.857 489.71 293.327 488.693 294.175 488.519L293.194 489.2Z" fill="#E5F4FD"/>
<path d="M244.844 467.359C243.072 463.61 243.459 458.985 245.758 455.522C249.894 455.902 254.075 457.842 256.081 461.429C258.086 465.016 256.956 470.364 253.221 472.057C249.486 473.75 244.322 469.796 245.637 465.91L244.844 467.359Z" fill="#E5F4FD"/>
<path d="M198.228 469.138C198.459 469.67 199.156 469.877 199.688 469.647C200.219 469.416 200.556 468.906 200.735 468.367C200.839 468.018 200.896 467.702 200.828 467.404C200.673 466.681 199.749 466.147 199.045 466.428C198.308 466.662 197.9 467.568 198.134 468.305C198.368 469.041 199.228 469.482 199.982 469.373L198.228 469.138Z" fill="#E5F4FD"/>
<path d="M220.88 468.496C221.832 468.872 222.046 470.176 221.986 471.186C221.958 472.242 221.981 473.471 222.812 474.07C223.067 474.239 223.337 474.328 223.602 474.213C224.306 473.932 224.036 472.944 224.085 472.218C224.153 471.618 224.49 471.108 224.669 470.568C225.117 469.22 224.663 467.669 223.512 466.807C222.8 466.679 221.971 466.978 221.572 467.6C221.174 468.222 221.143 469.074 221.517 469.713L220.88 468.496Z" fill="#E5F4FD"/>
<path d="M252.066 480.052C252.425 479.872 252.784 479.692 253.175 479.559C253.672 479.975 253.892 480.79 253.587 481.348C253.282 481.905 252.42 482.157 251.877 481.773C251.334 481.39 251.348 480.412 251.972 480.117L252.066 480.052Z" fill="#E5F4FD"/>
<path d="M229.127 479.785C228.786 480.09 228.923 480.687 229.323 480.963C229.722 481.239 230.164 481.278 230.62 481.238C230.997 481.184 231.374 481.13 231.687 480.982C232.326 480.608 232.562 479.752 232.281 479.048C232.033 478.391 231.346 477.899 230.62 477.85C230.257 477.825 229.88 477.879 229.6 478.074C229.352 478.315 229.234 478.742 229.428 479.022L229.127 479.785Z" fill="#E5F4FD"/>
<path d="M236.158 513.632C232.377 511.969 229.627 508.206 229.109 504.071C232.484 501.66 236.92 500.38 240.745 501.806C244.616 503.199 247.259 508.004 245.531 511.693C243.756 515.413 237.271 515.834 235.765 511.969L236.158 513.632Z" fill="#E5F4FD"/>
<path d="M205.526 503.076C206.01 501.98 207.944 502.574 208.139 503.753C208.414 504.945 207.678 506.078 206.971 507.052C205.476 506.292 204.608 504.543 204.782 502.901L205.526 503.076Z" fill="#E5F4FD"/>
<path d="M207.407 459.244C207.766 459.064 208.125 458.884 208.517 458.751C209.013 459.167 209.233 459.983 208.928 460.54C208.624 461.097 207.761 461.35 207.218 460.966C206.675 460.582 206.689 459.605 207.314 459.309L207.407 459.244Z" fill="#E5F4FD"/>
<path d="M219.768 477.36C222.992 474.432 226.938 472.246 231.155 471.049C231.845 470.847 232.567 470.692 233.246 470.774C234.605 470.937 235.605 472.18 236.163 473.383C237.481 476.479 236.465 480.295 234.017 482.547C231.569 484.799 227.912 485.608 224.666 484.818C222.862 484.41 221.111 483.481 220.168 481.923C219.225 480.364 219.356 478.061 220.785 476.931C221.338 477.031 221.59 477.893 221.188 478.311L219.768 477.36Z" fill="#E5F4FD"/>
<path d="M271.205 527.968C272.06 523.917 275.146 520.393 279.061 519.059C282.154 521.822 284.357 525.895 283.787 529.956C283.216 534.016 279.171 537.653 275.135 536.72C271.131 535.833 269.328 529.547 272.8 527.276L271.205 527.968Z" fill="#E5F4FD"/>
<path d="M293.645 453.275C294.099 451.439 295.456 449.806 297.223 449.064C297.615 449.829 298.04 450.641 298.134 451.474C298.182 452.34 297.853 453.26 297.088 453.653C296.057 454.16 294.799 453.443 293.856 452.783C293.878 453.114 293.947 453.412 293.969 453.742L293.645 453.275Z" fill="#E5F4FD"/>
<path d="M307.51 453.126C307.833 452.695 308.235 452.277 308.784 452.173C309.255 452.054 309.826 452.279 310.319 452.491C311.653 453.018 313 453.465 314.377 453.755C312.301 454.849 310.179 455.976 308.103 457.071C307.963 457.168 307.744 457.251 307.636 457.395C307.22 457.891 307.692 458.67 307.577 459.303C307.485 460.266 306.343 460.713 305.384 460.825C298.604 461.519 305.629 455.399 307.51 453.126Z" fill="#E5F4FD"/>
<path d="M224.465 465.39C225.057 465.048 225.65 464.706 226.256 464.285C226.894 465.502 226.91 467.22 225.887 468.137C224.896 469.101 222.776 468.636 222.656 467.267C222.561 466.434 222.725 465.076 221.892 465.17L224.465 465.39Z" fill="#E5F4FD"/>
<path d="M283.444 474.25C282.88 474.434 282.399 474.837 282.109 475.315C283.46 475.968 285.055 475.276 286.366 474.574C287.098 474.135 287.938 473.552 287.765 472.704C287.707 472.122 287.164 471.738 286.887 471.239C286.332 470.241 286.553 468.566 285.428 468.24C284.81 468.047 284.11 468.533 283.838 469.137C283.565 469.741 283.562 470.434 283.606 471.095C283.633 472.529 283.738 473.977 283.765 475.41L283.444 474.25Z" fill="#E5F4FD"/>
<path d="M291.98 495.225C292.464 494.128 294.398 494.723 294.593 495.901C294.867 497.094 294.132 498.226 293.425 499.201C291.929 498.441 291.062 496.692 291.236 495.05L291.98 495.225Z" fill="#E5F4FD"/>
<path opacity="0.5" d="M307.42 474.623C307.241 475.162 307.709 475.736 308.295 475.883C308.848 475.983 309.412 475.799 309.879 475.475C310.159 475.281 310.407 475.04 310.543 474.738C310.876 474.023 310.466 473.132 309.736 472.878C309.006 472.623 308.148 473.08 307.894 473.81C307.64 474.54 308.05 475.431 308.733 475.717L307.42 474.623Z" fill="#E5F4FD"/>
<path d="M301.979 469.272C300.943 468.677 301.16 466.798 302.256 466.383C302.767 466.72 303.249 467.216 303.432 467.78C303.649 468.39 303.473 469.134 302.928 469.444C302.382 469.753 301.508 469.391 301.497 468.777L301.979 469.272Z" fill="#E5F4FD"/>
<path d="M280.827 452.345C280.721 450.897 281.277 449.405 282.346 448.455C283.073 449.403 283.8 450.351 284.527 451.299C284.851 451.766 285.221 452.2 285.28 452.782C285.41 453.867 284.294 454.849 283.172 454.728C282.051 454.607 281.245 453.645 280.989 452.578L280.827 452.345Z" fill="#E5F4FD"/>
<path opacity="0.5" d="M306.459 491.471C306.27 492.294 306.601 493.17 307.241 493.694C307.928 494.186 308.891 494.278 309.624 493.839C310.123 493.562 310.489 492.893 310.165 492.426C310.035 492.24 309.766 492.15 309.529 492.107C308.529 491.763 307.53 491.42 306.531 491.076C306.502 491.234 306.459 491.471 306.431 491.629L306.459 491.471Z" fill="#E5F4FD"/>
<path opacity="0.5" d="M319.213 501.983C320.269 502.01 320.874 503.181 321.191 504.137C321.541 505.139 321.941 506.313 322.955 506.578C323.224 506.667 323.555 506.646 323.756 506.437C324.33 505.969 323.794 505.097 323.592 504.407C323.455 503.811 323.602 503.225 323.576 502.689C323.582 501.302 322.596 499.981 321.294 499.501C320.54 499.61 319.904 500.189 319.729 500.933C319.522 501.63 319.821 502.46 320.428 502.937L319.213 501.983Z" fill="#E5F4FD"/>
<path opacity="0.5" d="M248.339 439.204C249.395 439.232 250 440.403 250.318 441.358C250.667 442.36 251.067 443.535 252.081 443.799C252.35 443.889 252.681 443.867 252.882 443.659C253.456 443.191 252.92 442.318 252.718 441.629C252.581 441.032 252.728 440.446 252.702 439.911C252.707 438.524 251.721 437.203 250.42 436.723C249.666 436.831 249.03 437.411 248.855 438.155C248.68 438.899 248.947 439.682 249.555 440.159L248.339 439.204Z" fill="#E5F4FD"/>
<path opacity="0.5" d="M325.681 493.763C325.975 493.489 326.269 493.216 326.564 492.943C327.182 493.136 327.621 493.869 327.507 494.501C327.392 495.134 326.646 495.652 326.027 495.458C325.409 495.265 325.124 494.356 325.541 493.86L325.681 493.763Z" fill="#E5F4FD"/>
<path d="M296.244 462.604C296.022 463.381 294.919 463.386 294.279 462.862C293.671 462.385 293.372 461.555 292.858 461.013C292.311 460.424 291.47 460.109 290.683 460.171C290.227 460.211 289.709 460.362 289.498 460.855C289.362 461.157 289.384 461.487 289.452 461.785C289.623 463.327 290.077 464.878 291.045 466.074C292.013 467.269 293.713 468.026 295.186 467.557C296.221 467.254 297.039 466.341 297.239 465.234C297.471 464.173 297.025 463.031 296.255 462.321L296.244 462.604Z" fill="#E5F4FD"/>
<path d="M296.389 441.686C296.355 440.741 297.364 439.902 298.341 439.916C299.319 439.929 300.214 440.621 300.625 441.512C300.805 441.871 300.863 442.453 300.536 442.68C300.303 442.842 299.987 442.785 299.67 442.728C298.499 442.434 297.313 442.22 296.141 441.927L296.389 441.686Z" fill="#E5F4FD"/>
<path d="M275.442 491.419C275.7 493.385 278.292 494.629 279.99 493.588C279.568 492.083 279.067 490.564 277.898 489.577C276.729 488.59 274.616 488.535 273.885 489.872C274.058 490.72 274.217 491.647 274.391 492.495L275.442 491.419Z" fill="#E5F4FD"/>
<path opacity="0.5" d="M312.275 465.376C312.569 465.103 312.91 464.797 313.237 464.57C313.733 464.987 314.215 465.482 314.306 466.111C314.35 466.772 313.653 467.462 313.11 467.079C312.887 466.957 312.805 466.738 312.689 466.472C312.362 465.8 312.001 465.082 311.641 464.364L312.275 465.376Z" fill="#E5F4FD"/>
<path d="M203.968 487.078C204.424 486.139 204.879 485.201 205.654 484.525C206.43 483.848 207.59 483.527 208.514 484.062C208.96 484.306 209.284 484.772 209.449 485.211C210.044 486.665 209.18 488.509 207.707 488.978C206.267 489.493 204.484 488.518 204.015 487.045L203.968 487.078Z" fill="#E5F4FD"/>
<path d="M258.564 514.334C259.156 513.992 259.796 513.618 260.388 513.276C260.773 513.631 261.05 514.13 261.248 514.615C260.617 515.399 259.28 515.566 258.511 514.855L258.564 514.334Z" fill="#E5F4FD"/>
<path d="M265.201 498.386C265.794 498.044 266.433 497.67 267.025 497.328C267.41 497.683 267.687 498.182 267.886 498.667C267.254 499.451 265.917 499.618 265.148 498.907L265.201 498.386Z" fill="#E5F4FD"/>
<path d="M237.803 448.039C237.741 447.253 238.869 446.885 239.585 447.218C240.3 447.552 240.8 448.173 241.501 448.585C242.202 448.998 243.054 449.029 243.837 448.762C244.275 448.597 244.71 448.226 244.749 447.784C244.806 447.468 244.658 447.155 244.543 446.89C243.902 445.467 243.088 444.096 241.779 443.206C240.503 442.363 238.67 442.113 237.41 442.988C236.523 443.603 236.039 444.7 236.123 445.817C236.253 446.902 236.934 447.882 237.919 448.305L237.803 448.039Z" fill="#E5F4FD"/>
<path d="M223.546 487.187C223.367 487.726 223.141 488.298 222.739 488.715C222.337 489.132 221.68 489.381 221.108 489.155C220.202 488.746 220.226 487.485 219.629 486.724C219.032 485.963 217.799 485.781 217.435 484.858C217.104 483.982 218.015 483.003 218.974 482.891C219.966 482.825 220.811 483.345 221.609 483.898C222.296 484.389 223.015 484.927 223.361 485.725C223.707 486.522 223.554 487.597 222.821 488.036L223.546 487.187Z" fill="#E5F4FD"/>
<path d="M262.424 464.289C259.174 465.784 255.61 466.528 252.046 466.374C251.478 466.353 250.878 466.285 250.385 466.074C249.368 465.604 248.889 464.415 248.758 463.33C248.471 460.625 250.186 457.914 252.686 456.732C255.138 455.584 258.153 455.843 260.512 457.249C261.803 458.012 262.943 459.158 263.3 460.569C263.69 462.028 263.013 463.742 261.605 464.304C261.159 464.061 261.208 463.335 261.614 463.122L262.424 464.289Z" fill="#E5F4FD"/>
<path d="M244.815 445.389C244.616 444.904 244.433 444.34 244.612 443.801C244.744 443.294 245.211 442.97 245.599 442.632C246.733 441.775 247.77 440.779 248.696 439.722C248.598 442.072 248.533 444.468 248.481 446.786C248.485 446.991 248.456 447.149 248.539 447.368C248.755 447.979 249.654 447.978 250.197 448.362C250.995 448.914 250.813 450.147 250.419 450.974C247.684 457.297 245.827 448.144 244.815 445.389Z" fill="#E5F4FD"/>
<path d="M262.328 463.454C262.59 463.134 262.884 462.861 263.146 462.541C263.764 462.734 264.264 463.355 264.182 464.034C264.1 464.714 263.433 465.246 262.768 465.085C262.103 464.924 261.771 464.048 262.188 463.551L262.328 463.454Z" fill="#E5F4FD"/>
<path d="M256.066 445.258C255.207 444.817 254.993 443.513 255.467 442.701C255.987 441.856 257.003 441.427 257.966 441.519C258.408 441.558 258.901 441.77 258.955 442.147C258.977 442.478 258.776 442.686 258.575 442.895C257.757 443.808 256.953 444.643 256.135 445.557L256.066 445.258Z" fill="#E5F4FD"/>
<path d="M263.029 456.191C261.633 454.878 260.934 452.873 261.151 450.994C262.003 451.025 262.901 451.025 263.649 451.405C264.443 451.752 265.073 452.56 265.041 453.412C264.953 454.58 263.721 455.296 262.658 455.757C262.96 455.893 263.23 455.983 263.578 456.086L263.029 456.191Z" fill="#E5F4FD"/>
<path d="M270.654 460.305C270.554 460.858 270.644 461.487 270.875 462.018C272.088 461.176 272.324 459.423 272.344 457.956C272.328 457.137 272.23 456.099 271.468 455.798C270.897 455.572 270.318 455.835 269.751 455.814C268.568 455.805 267.242 454.789 266.405 455.577C265.957 456.027 265.972 456.846 266.36 457.406C266.749 457.966 267.353 458.238 267.943 458.59C269.215 459.228 270.474 459.946 271.746 460.584L270.654 460.305Z" fill="#E5F4FD"/>
<path d="M250.371 451.7C249.052 451.094 248.051 449.852 247.741 448.408C248.951 448.259 250.083 448.096 251.294 447.948C251.844 447.843 252.426 447.785 252.95 448.043C253.935 448.466 254.199 449.942 253.586 450.852C252.94 451.715 251.668 451.975 250.623 451.664L250.371 451.7Z" fill="#E5F4FD"/>
<path d="M266.968 443.435C267.515 444.024 266.934 444.98 266.23 445.261C265.526 445.542 264.656 445.385 263.887 445.572C263.119 445.76 262.404 446.325 262.071 447.04C261.874 447.454 261.774 448.007 262.033 448.381C262.227 448.661 262.529 448.797 262.799 448.887C264.244 449.474 265.796 449.918 267.305 449.701C268.814 449.484 270.322 448.368 270.594 446.866C270.826 445.806 270.426 444.631 269.61 443.953C268.793 443.275 267.575 443.014 266.573 443.363L266.968 443.435Z" fill="#E5F4FD"/>
<path d="M243.772 488.433C243.189 487.593 242.574 486.706 242.429 485.7C242.205 484.68 242.577 483.523 243.45 482.986C243.903 482.741 244.406 482.669 244.927 482.722C246.443 482.915 247.656 484.563 247.338 486.097C247.066 487.6 245.321 488.672 243.833 488.322L243.772 488.433Z" fill="#E5F4FD"/>
<path d="M228.404 471.365C227.009 470.051 226.309 468.047 226.527 466.168C227.378 466.199 228.276 466.198 229.024 466.578C229.819 466.926 230.448 467.734 230.417 468.585C230.328 469.753 229.097 470.47 228.034 470.931C228.336 471.067 228.605 471.156 228.954 471.26L228.404 471.365Z" fill="#E5F4FD"/>
<path d="M274.332 460.522C275.356 460.503 276.054 461.609 276.418 462.532C276.814 463.501 277.308 464.611 278.289 464.829C278.605 464.886 278.857 464.85 279.058 464.642C279.6 464.127 278.97 463.319 278.736 462.583C278.552 462.019 278.666 461.387 278.608 460.805C278.488 459.436 277.455 458.147 276.093 457.778C275.371 457.934 274.768 458.559 274.593 459.303C274.464 460.015 274.763 460.845 275.386 461.243L274.332 460.522Z" fill="#E5F4FD"/>
<path d="M214.285 513.802C214.662 513.748 215.086 513.661 215.431 513.56C215.866 514.088 215.849 514.86 215.386 515.389C214.923 515.918 214.071 515.886 213.636 515.359C213.201 514.831 213.483 513.943 214.126 513.774L214.285 513.802Z" fill="#E5F4FD"/>
<path d="M248.232 461.276C248.145 460.852 248.091 460.475 248.004 460.051C248.615 459.834 249.305 459.632 249.909 459.905C250.512 460.177 250.751 461.118 250.158 461.46C249.939 461.543 249.688 461.579 249.45 461.537C248.645 461.473 247.92 461.423 247.115 461.359L248.232 461.276Z" fill="#E5F4FD"/>
<path opacity="0.5" d="M558.746 423.942C558.636 424.779 557.295 424.741 556.903 423.976C556.543 423.258 556.747 422.356 557.048 421.594C558.187 421.841 559.072 422.817 559.281 423.916L558.746 423.942Z" fill="white"/>
<path d="M537.917 403.192C537.909 402.782 537.51 402.506 537.101 402.513C536.691 402.521 536.397 402.794 536.135 403.114C535.981 403.291 535.859 403.514 535.862 403.718C535.809 404.239 536.244 404.767 536.733 404.774C537.254 404.827 537.75 404.345 537.77 403.777C537.824 403.256 537.389 402.729 536.867 402.675L537.917 403.192Z" fill="white"/>
<path opacity="0.5" d="M549.18 402.083C548.928 402.119 548.644 402.109 548.393 402.145C548.18 401.739 548.234 401.218 548.575 400.912C548.916 400.607 549.516 400.674 549.775 401.048C550.034 401.421 549.762 402.025 549.338 402.112L549.18 402.083Z" fill="white"/>
<path d="M585.016 408.682C584.426 407.432 582.56 407.136 581.649 408.114C582.185 408.987 582.833 409.92 583.771 410.375C584.756 410.798 586.121 410.474 586.354 409.413C586.044 408.867 585.814 408.336 585.504 407.79L585.016 408.682Z" fill="white"/>
<path d="M578.557 397.882C578.429 398.594 578.3 399.305 577.916 399.848C577.565 400.438 576.832 400.877 576.135 400.67C575.786 400.566 575.499 400.35 575.258 400.103C574.628 399.295 574.838 397.904 575.679 397.321C576.565 396.706 577.895 397.028 578.432 397.9L578.557 397.882Z" fill="white"/>
<path d="M577.088 405.128C576.779 405.48 576.438 405.786 576.083 406.171C575.748 405.988 575.508 405.74 575.281 405.414C575.521 404.763 576.397 404.432 577.034 404.751L577.088 405.128Z" fill="white"/>
<path d="M579.956 402.788C579.267 402.99 578.655 402.308 578.266 401.748C577.845 401.141 577.392 400.488 576.698 400.485C576.494 400.489 576.274 400.571 576.167 400.715C575.891 401.114 576.419 401.577 576.664 402.03C576.844 402.389 576.852 402.799 576.985 403.19C577.27 404.099 578.165 404.791 579.096 404.837C579.581 404.639 579.872 404.161 579.846 403.625C579.853 403.137 579.496 402.623 579.036 402.458L579.956 402.788Z" fill="white"/>
<path d="M571.058 412.488C570.689 412.952 570.287 413.369 569.787 413.646C569.694 413.711 569.647 413.743 569.522 413.761C569.317 413.765 569.173 413.657 569.076 413.517C568.817 413.144 568.823 412.655 569.1 412.256C569.329 411.889 569.814 411.691 570.224 411.684C570.428 411.68 570.698 411.769 570.874 411.924C571.051 412.078 571.072 412.409 570.918 412.585C570.839 412.57 570.774 412.477 570.821 412.445L571.058 412.488Z" fill="white"/>
<path d="M534.094 365.395C534.068 364.86 534.805 364.626 535.329 364.884C535.822 365.095 536.146 365.562 536.624 365.852C537.102 366.143 537.702 366.211 538.234 365.98C538.5 365.865 538.826 365.638 538.884 365.322C538.926 365.085 538.844 364.865 538.746 364.725C538.35 363.756 537.749 362.79 536.918 362.191C536.088 361.591 534.855 361.41 533.936 361.978C533.329 362.399 532.949 363.147 533.025 363.855C533.101 364.563 533.587 365.263 534.224 365.582L534.094 365.395Z" fill="white"/>
<path d="M567.625 374.35C567.497 375.062 567.368 375.773 566.984 376.316C566.633 376.906 565.9 377.345 565.203 377.137C564.854 377.034 564.567 376.818 564.326 376.571C563.696 375.763 563.906 374.372 564.746 373.789C565.633 373.174 566.963 373.496 567.499 374.368L567.625 374.35Z" fill="white"/>
<path opacity="0.5" d="M564.944 382.848C564.793 383.229 564.643 383.61 564.348 383.883C564.054 384.156 563.616 384.322 563.235 384.172C562.631 383.899 562.63 383.001 562.227 382.52C561.792 381.992 561.001 381.849 560.752 381.192C560.536 380.581 561.186 379.923 561.847 379.879C562.508 379.836 563.098 380.187 563.64 380.571C564.104 380.94 564.568 381.31 564.799 381.842C565.029 382.373 564.901 383.085 564.355 383.394L564.944 382.848Z" fill="white"/>
<path d="M572.037 353.307C572.263 356.124 570.883 359.018 568.596 360.605C566.083 359.375 563.835 357.132 563.483 354.334C563.131 351.535 565.076 348.457 567.892 348.231C570.695 348.084 573.035 351.855 571.215 354.016L572.037 353.307Z" fill="white"/>
<path d="M571.327 406.494C571.383 407.77 570.809 409.136 569.768 409.927C569.351 409.525 568.948 409.044 568.717 408.513C568.487 407.981 568.536 407.255 568.971 406.885C569.56 406.338 570.494 406.589 571.256 406.89C571.173 406.67 571.044 406.484 570.993 406.311L571.327 406.494Z" fill="white"/>
<path d="M562.27 409.186C562.087 409.52 561.936 409.901 561.624 410.049C561.311 410.196 560.948 410.172 560.586 410.147C559.622 410.055 558.645 410.041 557.7 410.075C558.845 408.934 560.022 407.841 561.167 406.7C561.261 406.636 561.368 406.492 561.383 406.413C561.58 405.999 561.116 405.63 561.044 405.127C560.953 404.498 561.574 403.998 562.199 403.703C566.581 402.045 563.087 407.374 562.27 409.186Z" fill="white"/>
<path d="M574.108 390.871C574.435 390.645 574.665 390.278 574.769 389.929C573.773 389.79 572.825 390.517 572.129 391.208C571.727 391.625 571.297 392.2 571.574 392.7C571.754 393.059 572.135 393.209 572.408 393.503C572.955 394.092 573.165 395.191 573.937 395.209C574.379 395.248 574.749 394.784 574.788 394.342C574.827 393.9 574.708 393.429 574.574 393.038C574.257 392.082 573.972 391.173 573.655 390.218L574.108 390.871Z" fill="white"/>
<path d="M564.556 378.697C564.445 379.534 563.105 379.496 562.712 378.731C562.352 378.013 562.556 377.111 562.857 376.349C563.997 376.596 564.881 377.572 565.091 378.671L564.556 378.697Z" fill="white"/>
<path opacity="0.5" d="M558.366 395.089C558.358 394.679 557.959 394.403 557.549 394.411C557.14 394.418 556.846 394.692 556.584 395.012C556.429 395.188 556.307 395.411 556.311 395.616C556.258 396.137 556.693 396.665 557.182 396.671C557.703 396.725 558.198 396.243 558.219 395.675C558.272 395.154 557.837 394.626 557.316 394.573L558.366 395.089Z" fill="white"/>
<path d="M562.936 397.589C563.712 397.811 563.972 399.083 563.272 399.569C562.891 399.418 562.478 399.221 562.219 398.848C561.96 398.474 561.966 397.986 562.228 397.666C562.523 397.392 563.169 397.427 563.256 397.851L562.936 397.589Z" fill="white"/>
<path d="M579.945 404.664C580.308 405.587 580.187 406.708 579.682 407.474C579.027 407.029 578.387 406.505 577.733 406.06C577.445 405.845 577.125 405.583 576.945 405.224C576.664 404.52 577.216 403.722 577.938 403.566C578.693 403.458 579.426 403.917 579.754 404.588L579.945 404.664Z" fill="white"/>
<path opacity="0.5" d="M555.777 383.888C555.751 383.353 555.363 382.793 554.87 382.581C554.331 382.402 553.702 382.493 553.3 382.91C553.006 383.183 552.906 383.737 553.24 383.92C553.384 384.027 553.542 384.056 553.715 384.005C554.441 384.055 555.134 384.058 555.86 384.107C555.842 383.982 555.824 383.856 555.806 383.73L555.777 383.888Z" fill="white"/>
<path opacity="0.5" d="M545.45 379.366C544.76 379.568 544.149 378.886 543.76 378.326C543.339 377.719 542.886 377.066 542.192 377.063C541.987 377.067 541.768 377.15 541.661 377.293C541.384 377.692 541.913 378.155 542.158 378.608C542.338 378.967 542.346 379.377 542.479 379.768C542.764 380.677 543.659 381.369 544.59 381.415C545.075 381.217 545.365 380.739 545.339 380.203C545.346 379.715 544.99 379.201 544.53 379.037L545.45 379.366Z" fill="white"/>
<path opacity="0.5" d="M542.75 385.941C542.628 386.164 542.46 386.419 542.338 386.642C541.896 386.603 541.464 386.28 541.424 385.824C541.384 385.367 541.754 384.903 542.196 384.942C542.638 384.981 542.994 385.495 542.797 385.908L542.75 385.941Z" fill="white"/>
<path d="M567.895 400.851C567.869 400.316 568.606 400.082 569.131 400.34C569.623 400.551 569.947 401.018 570.425 401.308C570.904 401.599 571.504 401.667 572.035 401.436C572.301 401.321 572.628 401.094 572.685 400.778C572.728 400.541 572.645 400.322 572.548 400.182C572.151 399.212 571.55 398.246 570.72 397.647C569.889 397.048 568.656 396.866 567.737 397.434C567.13 397.855 566.75 398.603 566.826 399.311C566.903 400.019 567.388 400.719 568.025 401.038L567.895 400.851Z" fill="white"/>
<path d="M571.746 414.57C571.915 415.213 571.456 415.947 570.813 416.116C570.17 416.286 569.487 415.999 569.005 415.504C568.797 415.303 568.663 414.911 568.864 414.703C568.972 414.559 569.223 414.523 569.428 414.519C570.247 414.504 571.081 414.409 571.9 414.394L571.746 414.57Z" fill="white"/>
<path d="M576.141 378.053C575.55 376.803 573.685 376.507 572.773 377.485C573.31 378.358 573.957 379.291 574.896 379.747C575.881 380.17 577.246 379.845 577.478 378.784C577.169 378.239 576.938 377.707 576.628 377.161L576.141 378.053Z" fill="white"/>
<path opacity="0.5" d="M556.904 402.052C556.736 402.308 556.614 402.531 556.445 402.786C556.032 402.589 555.618 402.391 555.452 401.953C555.287 401.515 555.638 400.925 556.066 401.043C556.224 401.072 556.321 401.212 556.465 401.32C556.803 401.707 557.174 402.142 557.512 402.529L556.904 402.052Z" fill="white"/>
<path d="M582.897 359.886C582.588 360.238 582.247 360.544 581.892 360.929C581.558 360.746 581.317 360.498 581.09 360.172C581.33 359.521 582.206 359.189 582.843 359.509L582.897 359.886Z" fill="white"/>
<path d="M581.553 371.603C581.244 371.955 580.903 372.261 580.548 372.646C580.213 372.463 579.972 372.215 579.746 371.888C579.986 371.238 580.862 370.906 581.498 371.225L581.553 371.603Z" fill="white"/>
<path d="M582.676 398.135C581.986 398.337 581.36 397.734 580.925 397.206C580.49 396.678 579.957 396.011 579.217 396.04C579.012 396.044 578.826 396.173 578.718 396.317C578.474 396.763 579.05 397.194 579.309 397.567C579.535 397.894 579.575 398.35 579.723 398.663C580.054 399.539 580.997 400.199 581.942 400.166C582.394 399.921 582.652 399.396 582.627 398.861C582.554 398.358 582.23 397.891 581.723 397.758L582.676 398.135Z" fill="white"/>
<path d="M376.464 526.708C376.464 526.708 383.829 533.666 393.665 542.433C409.534 556.722 431.774 575.985 439.073 578.464C442.572 579.681 442.655 572.13 441.077 561.003C437.311 534.689 424.106 488.188 424.106 488.188C424.106 488.188 386.461 506.015 376.464 526.708Z" fill="url(#paint0_linear_805_85)"/>
<path opacity="0.5" d="M376.464 526.708C376.464 526.708 383.829 533.666 393.665 542.433C393.665 542.433 404.042 538.172 424.738 544.723C432.574 547.25 437.739 553.794 441.077 561.003C437.311 534.689 424.106 488.188 424.106 488.188C424.106 488.188 386.461 506.015 376.464 526.708Z" fill="url(#paint1_linear_805_85)"/>
<path d="M291.138 499.872L291.249 499.846C302.004 493.977 313.686 479.425 320.766 460.472C336.206 419.579 343.922 339.822 310.154 331.806C306.816 331.019 296.754 352.427 287.067 380.11C275.676 412.691 264.875 453.947 266.261 477.846C267.594 501.524 278.718 506.602 291.138 499.872Z" fill="url(#paint2_linear_805_85)"/>
<path d="M304.907 487.981C304.907 487.981 285.188 450.725 272.862 454.396C260.536 458.068 267.279 495.004 277.255 500.411C287.12 505.844 301.403 493.654 304.907 487.981Z" fill="url(#paint3_linear_805_85)"/>
<path opacity="0.3" d="M291.138 499.872L291.249 499.846C302.004 493.977 313.686 479.425 320.766 460.472C336.206 419.579 343.922 339.822 310.154 331.806C306.816 331.019 296.754 352.427 287.067 380.11C287.067 380.11 306.633 431.295 305.988 451.296C305.344 471.297 291.197 486.782 291.197 486.782L291.138 499.872Z" fill="url(#paint4_linear_805_85)"/>
<path d="M465.089 423.218C478.019 470.775 463.23 501.824 419.162 524.087C375.981 545.907 325.362 513.268 310.645 451.479C301.275 412.07 295.337 375.82 303.537 347.029C303.524 346.974 303.524 346.974 303.524 346.974L303.511 346.918C308.131 330.649 317.295 316.808 332.936 306.165C345.254 297.767 359.816 299.113 374.768 306.555C413.735 325.953 455.09 386.584 465.089 423.218Z" fill="url(#paint5_linear_805_85)"/>
<path opacity="0.3" d="M400.211 355.187C400.211 355.187 422.162 386.078 433.754 408.207C447.497 434.499 444.901 467.979 444.901 467.979L469.552 453.222C469.552 453.222 467.66 413.097 453.409 394.048C441.462 378.073 437.033 369.954 437.033 369.954L400.211 355.187Z" fill="url(#paint6_linear_805_85)"/>
<path d="M312.179 459.697C312.179 459.697 305.263 422.277 336.078 406.181C372.969 386.898 419.229 414.671 431.464 443.479C443.713 472.342 448.833 502.656 414.531 522.028C414.573 521.96 348.514 554.673 312.179 459.697Z" fill="url(#paint7_linear_805_85)"/>
<path d="M314.077 463.278C314.077 463.278 307.161 425.858 337.976 409.762C374.867 390.479 421.126 418.252 433.362 447.06C445.598 475.868 450.731 506.237 416.429 525.609C416.416 525.554 350.357 558.267 314.077 463.278Z" fill="url(#paint8_linear_805_85)"/>
<path d="M436.397 381.834C434.787 382.682 432.408 382.251 429.45 380.849C416.357 374.602 392.654 349.146 384.118 332.54C380.797 326.145 379.761 321.019 382.531 318.905C387.027 315.449 405.717 326.853 422.838 347.676C432.726 359.876 443.251 378.23 436.397 381.834Z" fill="url(#paint9_linear_805_85)"/>
<path d="M429.451 380.852C416.358 374.605 392.655 349.149 384.119 332.544C392.243 336.287 404.588 346.038 416.228 360.217C421.246 366.386 426.478 374.199 429.451 380.852Z" fill="url(#paint10_linear_805_85)"/>
<path d="M371.514 361.968C368.932 363.395 375.131 385.924 377.697 385.668C380.264 385.412 384.439 383.316 382.149 373.874C379.86 364.433 374.053 360.609 371.514 361.968Z" fill="white"/>
<path d="M457.728 618.129C472.969 614.936 503.146 460.753 485.397 453.33C455.202 440.675 428.84 486.483 420.711 510.88C418.888 516.506 417.962 520.986 418.221 523.318C419.56 535.903 442.431 621.334 457.728 618.129Z" fill="url(#paint11_linear_805_85)"/>
<path d="M393.78 327.979C387.346 338.548 422.873 379.949 445.959 382.783C469.046 385.618 512.609 365.167 519.133 360.415C525.726 355.705 522.635 330.515 513.613 322.723C504.591 314.931 402.622 313.514 393.78 327.979Z" fill="url(#paint12_linear_805_85)"/>
<path d="M252.628 91.8033C252.628 91.8033 232.07 113.999 230.234 154.655C228.386 195.255 274.765 136.077 274.765 136.077L252.628 91.8033Z" fill="url(#paint13_linear_805_85)"/>
<path d="M246.382 142.203C246.382 142.203 241.079 89.8657 256.446 79.0543C271.869 68.2297 299.822 87.953 299.822 87.953L246.382 142.203Z" fill="url(#paint14_linear_805_85)"/>
<path d="M375.927 81.9392C463.175 110.244 486.33 227.015 466.997 275.891C444.474 332.76 258.525 344.298 214.369 270.084C169.659 195.009 267.435 46.7451 375.927 81.9392Z" fill="url(#paint15_linear_805_85)"/>
<path opacity="0.5" d="M427.673 197.676C427.673 197.676 446.839 237.281 473.206 242.143C473.206 242.143 474.054 220.284 471.037 207.512C468.019 194.74 427.673 197.676 427.673 197.676Z" fill="url(#paint16_linear_805_85)"/>
<path d="M333.64 103.605C399.53 119.093 436.657 235.948 406.797 284.743C376.937 333.539 234.087 323.159 208.102 254.693C184.859 193.634 254.781 85.1102 333.64 103.605Z" fill="url(#paint17_linear_805_85)"/>
<path d="M395.766 125.879C395.766 125.879 404.856 199.68 455.264 214.623C455.264 214.623 477.597 211.798 487.136 195.591C487.136 195.591 471.774 218.778 446.426 204.393C421.077 190.009 413.485 135.644 425.209 114.602C436.933 93.5596 460.784 92.7109 460.784 92.7109L449.727 86.6836C449.727 86.6836 414.546 87.7576 395.766 125.879Z" fill="url(#paint18_linear_805_85)"/>
<path d="M449.727 86.6847C449.727 86.6847 424.476 90.2576 413.993 122.974C402.877 157.708 428.64 207.196 452.748 209.906C476.924 212.658 479.253 122.207 479.253 122.207L458.319 91.4262C458.375 91.4131 454.708 87.2591 449.727 86.6847Z" fill="url(#paint19_linear_805_85)"/>
<path d="M498.755 151.629C499.483 168.795 495.968 183.811 489.022 194.442L488.98 194.511L487.015 197.31C481.156 204.882 473.24 209.672 463.732 210.692C432.752 213.984 418.435 171.425 416.133 145.874C413.497 116.432 433.83 93.531 453.838 91.4887C477.531 88.9843 497.399 117.974 498.755 151.629Z" fill="url(#paint20_linear_805_85)"/>
<path opacity="0.72" d="M429.148 179.461C429.148 179.461 438.665 205.409 459.596 206.534C480.583 207.646 493.162 189.729 493.464 168.525C493.464 168.525 491.416 187.282 464.827 188.894C438.293 190.493 429.148 179.461 429.148 179.461Z" fill="url(#paint21_linear_805_85)"/>
<path opacity="0.72" d="M420.885 128.174C422.282 133.098 455.833 114.254 467.644 113.098C479.442 111.886 487.626 124.781 489.372 124.018C491.118 123.255 478.492 91.562 456.631 94.159C434.769 96.756 419.909 124.786 420.885 128.174Z" fill="url(#paint22_linear_805_85)"/>
<path opacity="0.64" d="M249.468 219.992C238.843 229.624 217.431 218.805 217.624 199.612C217.831 180.473 235.418 161.023 247.214 164.249C258.967 167.543 267.163 203.96 249.468 219.992Z" fill="white"/>
<path opacity="0.64" d="M369.377 234.33C353.229 252.214 327.211 235.244 322.821 215.675C318.443 196.16 331.892 172.784 350.845 173.443C371.63 174.194 385.986 215.927 369.377 234.33Z" fill="white"/>
<path opacity="0.64" d="M312.196 254.963C314.723 257.752 295.182 279.065 282.929 277.115C268.558 274.848 264.045 246.608 266.034 244.154C267.954 241.657 307.861 250.208 312.196 254.963Z" fill="white"/>
<path d="M485.886 200.675C485.886 200.675 484.629 185.969 474.425 183.301C474.425 183.301 460.599 185.809 460.348 199.821C460.348 199.821 507.642 279.656 488.889 298.623C471.463 316.284 411.268 302.661 411.268 302.661L407.736 307.232C407.736 307.232 460.284 325.055 487.153 309.308C514.035 293.615 485.886 200.675 485.886 200.675Z" fill="url(#paint23_linear_805_85)"/>
<path d="M425.043 300.689C431.853 309.004 416.409 317.265 403.898 318.178C389.884 319.154 365.301 312.703 367.302 298.687C369.371 284.713 409.049 281.175 425.043 300.689Z" fill="url(#paint24_linear_805_85)"/>
<path opacity="0.64" d="M424.048 302.152C424.362 304.471 374.536 303.11 373.672 294.265C372.864 285.408 421.454 284.259 424.048 302.152Z" fill="white"/>
<path d="M546.076 304.952C546.076 304.952 542.789 299.191 534.229 298.294L533.518 317.026L546.076 304.952Z" fill="url(#paint25_linear_805_85)"/>
<path d="M533.564 260.157C533.564 260.157 505.091 250.831 453.074 264.407C453.074 264.407 450.089 349.117 460.778 406.953C460.778 406.953 493.407 408.175 526.584 399.11C526.584 399.11 536.985 334.422 533.564 260.157Z" fill="url(#paint26_linear_805_85)"/>
<path d="M453.074 264.407L440.141 262.792C440.141 262.792 441.118 346.975 453.959 406.755L460.833 406.94L453.074 264.407Z" fill="url(#paint27_linear_805_85)"/>
<path opacity="0.5" d="M531.685 353.247L529.549 372.374C529.549 372.374 507.048 355.216 504.133 334.48L531.685 353.247Z" fill="url(#paint28_linear_805_85)"/>
<path d="M533.564 260.157C533.564 260.157 511.791 249.54 440.141 262.792L453.074 264.406C453.074 264.406 485.109 256.195 533.564 260.157Z" fill="#D198C4"/>
<path d="M542.448 316.029C542.448 316.029 548.183 346.723 538.334 355.939C538.334 355.939 501.363 345.235 501.415 325.199C501.461 311.061 542.448 316.029 542.448 316.029Z" fill="url(#paint29_linear_805_85)"/>
<path d="M546.077 304.954C546.077 304.954 551.969 329.89 541.28 348.644C541.28 348.644 520.402 345.521 512.16 339.296C498.936 329.286 501.453 321.16 504.257 317.462C508.702 311.567 546.077 304.954 546.077 304.954Z" fill="url(#paint30_linear_805_85)"/>
<path d="M450.389 289.85C450.389 289.85 445.982 287.505 442.49 289.031C442.49 289.031 440.132 310.429 445.495 326.208L451.321 326.407L450.389 289.85Z" fill="url(#paint31_linear_805_85)"/>
<path d="M450.39 289.854C450.39 289.854 446.421 311.107 448.443 326.333L443.146 325.658C443.146 325.658 440.675 299.389 442.49 289.036C442.477 288.98 447.317 287.72 450.39 289.854Z" fill="url(#paint32_linear_805_85)"/>
<path d="M486.091 293.212C486.352 300.739 491.084 306.685 496.641 306.481C502.197 306.278 506.495 300.008 506.234 292.481C505.973 284.953 501.241 279.008 495.685 279.211C490.128 279.415 485.83 285.685 486.091 293.212Z" fill="url(#paint33_linear_805_85)"/>
<path d="M487.081 293.443C487.294 299.289 490.968 303.966 495.298 303.761C499.641 303.61 502.984 298.734 502.757 292.833C502.543 286.987 498.869 282.31 494.54 282.515C490.21 282.721 486.867 287.598 487.081 293.443Z" fill="url(#paint34_linear_805_85)"/>
<path d="M516.045 393.542L514.569 387.295L477.991 390.859L476.768 397.044C476.755 396.989 497.694 396.419 516.045 393.542Z" fill="url(#paint35_linear_805_85)"/>
<path opacity="0.5" d="M453.6 274.788L529.558 375.872L527.992 389.26C527.992 389.26 482.073 373.548 457.901 347.094C457.901 347.094 454.196 285.214 453.6 274.788Z" fill="url(#paint36_linear_805_85)"/>
<path d="M389.185 103.966C390.364 108.708 355.634 91.9289 358.826 89.1315C362.018 86.3341 387.781 98.5187 389.185 103.966Z" fill="white"/>
<path opacity="0.3" d="M416.03 454.018L416.409 452.41C416.364 452.713 416.205 453.276 416.03 454.018Z" fill="url(#paint37_linear_805_85)"/>
<path opacity="0.3" d="M457.727 618.129C472.968 614.936 503.146 460.753 485.396 453.33C485.396 453.33 487.197 545.199 469.595 573.234C451.993 601.27 423.114 545.513 421.105 518.726C420.878 516.036 420.774 513.375 420.753 510.811C418.93 516.438 418.003 520.918 418.263 523.25C419.559 535.903 442.431 621.334 457.727 618.129Z" fill="url(#paint38_linear_805_85)"/>
<path d="M464.014 483.657C467.225 486.868 466.731 511.212 463.461 511.459C460.15 511.774 456.625 499.822 457.314 495.573C457.948 491.337 463.252 482.903 464.014 483.657Z" fill="white"/>
<path d="M463.645 515.445C466.626 516.2 465.052 523.869 463.107 524.037C461.175 524.26 460.925 514.804 463.645 515.445Z" fill="white"/>
<path d="M281.934 84.8844C281.011 89.1305 267.021 84.0298 268.006 80.2944C269.047 76.5458 282.857 80.6382 281.934 84.8844Z" fill="white"/>
<path d="M544.129 311.779C544.678 314.102 531.887 314.322 532.369 312.165C532.852 310.007 543.228 307.964 544.129 311.779Z" fill="white"/>
<path d="M480.307 194.111C483.21 192.316 495.181 236.306 492.726 237.528C490.271 238.75 475.765 196.877 480.307 194.111Z" fill="url(#paint39_linear_805_85)"/>
<path d="M245.643 488.669C245.643 488.669 252.817 473.08 266.532 468.613C280.246 464.147 286.023 467.102 290.573 476.476C295.123 485.851 281.849 525.531 262.132 557.219C251.608 560.114 245.955 547.556 242.808 539.426C241.471 532.036 239.112 507.725 245.643 488.669Z" fill="url(#paint40_linear_805_85)"/>
<path d="M276.908 466.576C276.908 466.576 257.366 508.146 252.911 530.799C250.548 543.032 249.329 550.968 249.329 550.968C249.329 550.968 259.429 567.029 268.105 550.384C280.399 526.814 296.19 491.851 289.511 477.667C283.823 465.701 281.134 463.709 276.908 466.576Z" fill="url(#paint41_linear_805_85)"/>
<path d="M260.942 504.498C260.942 504.498 268.263 523.375 280.628 524.073L273.772 476.772C273.772 476.772 263.385 497.791 260.942 504.498Z" fill="url(#paint42_linear_805_85)"/>
<path d="M270.003 488.99C269.099 493.815 277.985 522.772 281.836 525.481C285.7 528.246 292.089 521.191 293.026 514.781C293.977 508.427 297.178 474.045 283.27 465.831C283.283 465.887 273.861 468.755 270.003 488.99Z" fill="url(#paint43_linear_805_85)"/>
<path d="M276.136 491.972C274.849 492.451 275.265 502.861 276.691 504.45C278.118 506.04 280.261 505.475 280.899 502.989C281.538 500.503 278.062 491.225 276.136 491.972Z" fill="white"/>
<defs>
<linearGradient id="paint0_linear_805_85" x1="440.337" y1="578.534" x2="397.65" y2="502.776" gradientUnits="userSpaceOnUse">
<stop stop-color="#C9D400"/>
<stop offset="0.1845" stop-color="#CDD400"/>
<stop offset="0.3698" stop-color="#EED100"/>
<stop offset="0.5" stop-color="#FFCD0F"/>
<stop offset="1" stop-color="#F6A230"/>
</linearGradient>
<linearGradient id="paint1_linear_805_85" x1="414.87" y1="567.232" x2="397.671" y2="494.443" gradientUnits="userSpaceOnUse">
<stop stop-color="#8FA3D4"/>
<stop offset="1" stop-color="#6E5CA4"/>
</linearGradient>
<linearGradient id="paint2_linear_805_85" x1="323.66" y1="488.049" x2="270.815" y2="346.355" gradientUnits="userSpaceOnUse">
<stop stop-color="#C9D400"/>
<stop offset="0.1845" stop-color="#CDD400"/>
<stop offset="0.3698" stop-color="#EED100"/>
<stop offset="0.5" stop-color="#FFCD0F"/>
<stop offset="1" stop-color="#F6A230"/>
</linearGradient>
<linearGradient id="paint3_linear_805_85" x1="283.545" y1="501.877" x2="287.433" y2="455.195" gradientUnits="userSpaceOnUse">
<stop stop-color="#024F48"/>
<stop offset="1" stop-color="#067132"/>
</linearGradient>
<linearGradient id="paint4_linear_805_85" x1="325.883" y1="491.688" x2="289.259" y2="336.687" gradientUnits="userSpaceOnUse">
<stop stop-color="#926AAB"/>
<stop offset="1" stop-color="#CDEAFC"/>
</linearGradient>
<linearGradient id="paint5_linear_805_85" x1="419.967" y1="524.233" x2="337.582" y2="303.409" gradientUnits="userSpaceOnUse">
<stop stop-color="#C9D400"/>
<stop offset="0.1845" stop-color="#CDD400"/>
<stop offset="0.3698" stop-color="#EED100"/>
<stop offset="0.5" stop-color="#FFCD0F"/>
<stop offset="1" stop-color="#F6A230"/>
</linearGradient>
<linearGradient id="paint6_linear_805_85" x1="463.71" y1="458.182" x2="407.764" y2="351.25" gradientUnits="userSpaceOnUse">
<stop stop-color="#926AAB"/>
<stop offset="1" stop-color="#CDEAFC"/>
</linearGradient>
<linearGradient id="paint7_linear_805_85" x1="326.395" y1="489.65" x2="428.006" y2="436.488" gradientUnits="userSpaceOnUse">
<stop stop-color="#024F48"/>
<stop offset="1" stop-color="#067132"/>
</linearGradient>
<linearGradient id="paint8_linear_805_85" x1="328.271" y1="493.233" x2="429.881" y2="440.071" gradientUnits="userSpaceOnUse">
<stop stop-color="#008056"/>
<stop offset="1" stop-color="#A4CC7B"/>
</linearGradient>
<linearGradient id="paint9_linear_805_85" x1="396.867" y1="356.947" x2="423.029" y2="343.259" gradientUnits="userSpaceOnUse">
<stop stop-color="#024F48"/>
<stop offset="1" stop-color="#067132"/>
</linearGradient>
<linearGradient id="paint10_linear_805_85" x1="422.857" y1="352.896" x2="390.706" y2="360.493" gradientUnits="userSpaceOnUse">
<stop stop-color="#008056"/>
<stop offset="1" stop-color="#A4CC7B"/>
</linearGradient>
<linearGradient id="paint11_linear_805_85" x1="499.401" y1="597.627" x2="435.131" y2="467.606" gradientUnits="userSpaceOnUse">
<stop stop-color="#C9D400"/>
<stop offset="0.1845" stop-color="#CDD400"/>
<stop offset="0.3698" stop-color="#EED100"/>
<stop offset="0.5" stop-color="#FFCD0F"/>
<stop offset="1" stop-color="#F6A230"/>
</linearGradient>
<linearGradient id="paint12_linear_805_85" x1="473.935" y1="379.984" x2="446.472" y2="306.347" gradientUnits="userSpaceOnUse">
<stop stop-color="#C9D400"/>
<stop offset="0.1845" stop-color="#CDD400"/>
<stop offset="0.3698" stop-color="#EED100"/>
<stop offset="0.5" stop-color="#FFCD0F"/>
<stop offset="1" stop-color="#F6A230"/>
</linearGradient>
<linearGradient id="paint13_linear_805_85" x1="252.69" y1="168.678" x2="251.809" y2="91.7859" gradientUnits="userSpaceOnUse">
<stop stop-color="#008056"/>
<stop offset="1" stop-color="#A4CC7B"/>
</linearGradient>
<linearGradient id="paint14_linear_805_85" x1="273.063" y1="141.914" x2="272.306" y2="75.8012" gradientUnits="userSpaceOnUse">
<stop stop-color="#C9D400"/>
<stop offset="0.1845" stop-color="#CDD400"/>
<stop offset="0.3698" stop-color="#EED100"/>
<stop offset="0.5" stop-color="#FFCD0F"/>
<stop offset="1" stop-color="#F6A230"/>
</linearGradient>
<linearGradient id="paint15_linear_805_85" x1="376.929" y1="327.062" x2="288.37" y2="89.6059" gradientUnits="userSpaceOnUse">
<stop stop-color="#C9D400"/>
<stop offset="0.1845" stop-color="#CDD400"/>
<stop offset="0.3698" stop-color="#EED100"/>
<stop offset="0.5" stop-color="#FFCD0F"/>
<stop offset="1" stop-color="#F6A230"/>
</linearGradient>
<linearGradient id="paint16_linear_805_85" x1="459.477" y1="245.381" x2="447.115" y2="193.062" gradientUnits="userSpaceOnUse">
<stop stop-color="#8FA3D4"/>
<stop offset="1" stop-color="#6E5CA4"/>
</linearGradient>
<linearGradient id="paint17_linear_805_85" x1="331.279" y1="318.709" x2="281.358" y2="107.435" gradientUnits="userSpaceOnUse">
<stop stop-color="#008056"/>
<stop offset="1" stop-color="#A4CC7B"/>
</linearGradient>
<linearGradient id="paint18_linear_805_85" x1="454.019" y1="215.091" x2="424.906" y2="91.8795" gradientUnits="userSpaceOnUse">
<stop stop-color="#C9D400"/>
<stop offset="0.1845" stop-color="#CDD400"/>
<stop offset="0.3698" stop-color="#EED100"/>
<stop offset="0.5" stop-color="#FFCD0F"/>
<stop offset="1" stop-color="#F6A230"/>
</linearGradient>
<linearGradient id="paint19_linear_805_85" x1="462.352" y1="208.183" x2="434.479" y2="90.2233" gradientUnits="userSpaceOnUse">
<stop stop-color="#024F48"/>
<stop offset="1" stop-color="#067132"/>
</linearGradient>
<linearGradient id="paint20_linear_805_85" x1="471.945" y1="209.006" x2="444.624" y2="93.382" gradientUnits="userSpaceOnUse">
<stop stop-color="#008056"/>
<stop offset="1" stop-color="#A4CC7B"/>
</linearGradient>
<linearGradient id="paint21_linear_805_85" x1="468.838" y1="205.752" x2="460.859" y2="171.984" gradientUnits="userSpaceOnUse">
<stop stop-color="#D5E0F4"/>
<stop offset="1" stop-color="#020203"/>
</linearGradient>
<linearGradient id="paint22_linear_805_85" x1="419.339" y1="121.69" x2="485.503" y2="106.056" gradientUnits="userSpaceOnUse">
<stop stop-color="#020203"/>
<stop offset="1" stop-color="#D5E0F4"/>
</linearGradient>
<linearGradient id="paint23_linear_805_85" x1="478.226" y1="313.904" x2="424.562" y2="207.838" gradientUnits="userSpaceOnUse">
<stop stop-color="#024F48"/>
<stop offset="1" stop-color="#067132"/>
</linearGradient>
<linearGradient id="paint24_linear_805_85" x1="400.187" y1="319.183" x2="393.653" y2="285.803" gradientUnits="userSpaceOnUse">
<stop stop-color="#C9D400"/>
<stop offset="0.1845" stop-color="#CDD400"/>
<stop offset="0.3698" stop-color="#EED100"/>
<stop offset="0.5" stop-color="#FFCD0F"/>
<stop offset="1" stop-color="#F6A230"/>
</linearGradient>
<linearGradient id="paint25_linear_805_85" x1="540.455" y1="316.129" x2="538.049" y2="297.796" gradientUnits="userSpaceOnUse">
<stop stop-color="#024F48"/>
<stop offset="1" stop-color="#067132"/>
</linearGradient>
<linearGradient id="paint26_linear_805_85" x1="527.018" y1="398.913" x2="463.42" y2="259.674" gradientUnits="userSpaceOnUse">
<stop stop-color="#9E559D"/>
<stop offset="1" stop-color="#EB72A9"/>
</linearGradient>
<linearGradient id="paint27_linear_805_85" x1="474.466" y1="402.674" x2="431.583" y2="265.452" gradientUnits="userSpaceOnUse">
<stop stop-color="#734E9A"/>
<stop offset="1" stop-color="#E7297E"/>
</linearGradient>
<linearGradient id="paint28_linear_805_85" x1="530.952" y1="350.047" x2="508.906" y2="355.256" gradientUnits="userSpaceOnUse">
<stop stop-color="#8FA3D4"/>
<stop offset="1" stop-color="#6E5CA4"/>
</linearGradient>
<linearGradient id="paint29_linear_805_85" x1="535.37" y1="357.045" x2="518.656" y2="313.636" gradientUnits="userSpaceOnUse">
<stop stop-color="#024F48"/>
<stop offset="1" stop-color="#067132"/>
</linearGradient>
<linearGradient id="paint30_linear_805_85" x1="544.38" y1="346.567" x2="518.173" y2="307.763" gradientUnits="userSpaceOnUse">
<stop stop-color="#C9D400"/>
<stop offset="0.1845" stop-color="#CDD400"/>
<stop offset="0.3698" stop-color="#EED100"/>
<stop offset="0.5" stop-color="#FFCD0F"/>
<stop offset="1" stop-color="#F6A230"/>
</linearGradient>
<linearGradient id="paint31_linear_805_85" x1="455.467" y1="324.494" x2="439.809" y2="290.213" gradientUnits="userSpaceOnUse">
<stop stop-color="#9E559D"/>
<stop offset="1" stop-color="#EB72A9"/>
</linearGradient>
<linearGradient id="paint32_linear_805_85" x1="452.2" y1="325.107" x2="441.055" y2="289.442" gradientUnits="userSpaceOnUse">
<stop stop-color="#AC2C87"/>
<stop offset="1" stop-color="#911C7F"/>
</linearGradient>
<linearGradient id="paint33_linear_805_85" x1="497.633" y1="306.439" x2="494.717" y2="279.304" gradientUnits="userSpaceOnUse">
<stop stop-color="#AC2C87"/>
<stop offset="1" stop-color="#E7297E"/>
</linearGradient>
<linearGradient id="paint34_linear_805_85" x1="502.78" y1="292.878" x2="487.09" y2="293.446" gradientUnits="userSpaceOnUse">
<stop stop-color="#024F48"/>
<stop offset="1" stop-color="#067132"/>
</linearGradient>
<linearGradient id="paint35_linear_805_85" x1="514.749" y1="387.996" x2="476.764" y2="396.971" gradientUnits="userSpaceOnUse">
<stop stop-color="#AC2C87"/>
<stop offset="1" stop-color="#911C7F"/>
</linearGradient>
<linearGradient id="paint36_linear_805_85" x1="501.753" y1="395.449" x2="472.208" y2="270.411" gradientUnits="userSpaceOnUse">
<stop stop-color="#020203"/>
<stop offset="1" stop-color="#7293CC"/>
</linearGradient>
<linearGradient id="paint37_linear_805_85" x1="416.388" y1="453.942" x2="416.052" y2="452.523" gradientUnits="userSpaceOnUse">
<stop stop-color="#926AAB"/>
<stop offset="1" stop-color="#CDEAFC"/>
</linearGradient>
<linearGradient id="paint38_linear_805_85" x1="475.969" y1="614.851" x2="448.117" y2="460.036" gradientUnits="userSpaceOnUse">
<stop stop-color="#926AAB"/>
<stop offset="1" stop-color="#CDEAFC"/>
</linearGradient>
<linearGradient id="paint39_linear_805_85" x1="491.251" y1="237.878" x2="480.873" y2="193.956" gradientUnits="userSpaceOnUse">
<stop stop-color="#CABFE0"/>
<stop offset="1" stop-color="#E7DBED"/>
</linearGradient>
<linearGradient id="paint40_linear_805_85" x1="269.618" y1="557.035" x2="264.292" y2="467.289" gradientUnits="userSpaceOnUse">
<stop stop-color="#C9D400"/>
<stop offset="0.1845" stop-color="#CDD400"/>
<stop offset="0.3698" stop-color="#EED100"/>
<stop offset="0.5" stop-color="#FFCD0F"/>
<stop offset="1" stop-color="#F6A230"/>
</linearGradient>
<linearGradient id="paint41_linear_805_85" x1="280.529" y1="551.953" x2="257.041" y2="471.999" gradientUnits="userSpaceOnUse">
<stop stop-color="#024F48"/>
<stop offset="1" stop-color="#067132"/>
</linearGradient>
<linearGradient id="paint42_linear_805_85" x1="277.448" y1="524.979" x2="264.119" y2="479.608" gradientUnits="userSpaceOnUse">
<stop stop-color="#024F48"/>
<stop offset="1" stop-color="#067132"/>
</linearGradient>
<linearGradient id="paint43_linear_805_85" x1="283.962" y1="526.115" x2="280.398" y2="466.068" gradientUnits="userSpaceOnUse">
<stop stop-color="#C9D400"/>
<stop offset="0.1845" stop-color="#CDD400"/>
<stop offset="0.3698" stop-color="#EED100"/>
<stop offset="0.5" stop-color="#FFCD0F"/>
<stop offset="1" stop-color="#F6A230"/>
</linearGradient>
</defs>
</svg>
