<svg width="30" height="30" viewBox="0 0 30 30" fill="none" xmlns="http://www.w3.org/2000/svg">
<path d="M27.6825 3.93149C27.2325 3.54989 26.5257 3.49529 25.7949 3.78869H25.7937C25.0251 4.09709 4.03709 13.0995 3.18269 13.4673C3.02729 13.5213 1.67009 14.0277 1.80989 15.1557C1.93469 16.1727 3.02549 16.5939 3.15869 16.6425L8.49449 18.4695C8.84849 19.6479 10.1535 23.9955 10.4421 24.9243C10.6221 25.5033 10.9155 26.2641 11.4297 26.4207C11.8809 26.5947 12.3297 26.4357 12.6201 26.2077L15.8823 23.1819L21.1485 27.2889L21.2739 27.3639C21.6315 27.5223 21.9741 27.6015 22.3011 27.6015C22.5537 27.6015 22.7961 27.5541 23.0277 27.4593C23.8167 27.1353 24.1323 26.3835 24.1653 26.2983L28.0989 5.85209C28.3389 4.76009 28.0053 4.20449 27.6825 3.93149ZM13.2003 19.2003L11.4003 24.0003L9.60029 18.0003L23.4003 7.80029L13.2003 19.2003Z" fill="rgb(90, 189, 120)"/>
</svg>
