<svg width="38" height="20" viewBox="0 0 38 20" fill="none" xmlns="http://www.w3.org/2000/svg">
<path d="M33.4955 13.81C36.4543 16.4131 37.0685 17.6794 37.1696 17.8382C38.3967 19.7645 35.8105 19.9161 35.8105 19.9161L30.8698 19.9818C30.8698 19.9818 29.8055 20.1799 28.4093 19.2704C26.5606 18.0709 24.8204 14.9486 23.4613 15.3532C22.3217 15.691 22.0787 16.9633 22.0787 18.2702C22.0787 18.7381 21.7322 18.9482 20.8146 18.9482C19.897 18.9482 19.0102 18.9482 18.6033 18.9482C15.6186 18.9482 12.6574 18.8169 9.42491 15.4714C4.85424 10.7403 0.599295 1.91412 0.599295 1.91412C0.599295 1.91412 0.362499 1.43431 0.620262 1.1419C0.912558 0.814871 1.70681 0.855454 1.70681 0.855454L6.99281 0.853068C6.99281 0.853068 7.48983 0.946162 7.8475 1.19561C8.14226 1.3997 8.30629 1.78999 8.30629 1.78999C8.30629 1.78999 9.16098 3.84166 10.2932 5.69402C12.502 9.31041 13.5294 10.1029 14.2792 9.71383C15.3732 9.14929 15.0451 4.60433 15.0451 4.60433C15.0451 4.60433 15.0661 2.95368 14.4951 2.21846C14.0548 1.64915 13.2223 1.48206 12.8548 1.4367C12.5563 1.39851 13.0435 0.745648 13.6774 0.450847C14.6295 0.00924103 16.3093 -0.0146302 18.2949 0.00446627C19.8403 0.0187886 20.2867 0.110693 20.8898 0.249142C22.7127 0.665683 22.0935 2.27694 22.0935 6.1392C22.0935 7.3757 21.858 9.11587 22.799 9.69353C23.2048 9.94179 24.1951 9.73053 26.6716 5.74534C27.847 3.85599 28.7263 1.63483 28.7263 1.63483C28.7263 1.63483 28.9199 1.2899 29.2196 1.12042C29.5267 0.946162 29.5169 0.949741 29.9374 0.949741C30.358 0.949741 34.5759 0.917515 35.5009 0.917515C36.4259 0.917515 37.2929 0.906776 37.4422 1.44386C37.6568 2.21608 36.8169 3.94669 34.5439 6.81713C30.8118 11.5256 30.3975 11.0852 33.4955 13.81Z" fill="white"/>
</svg>
